<mxfile host="app.diagrams.net" modified="2022-02-16T15:10:06.333Z" agent="5.0 (Windows NT 10.0; Win64; x64) AppleWebKit/537.36 (KHTML, like Gecko) Chrome/98.0.4758.82 Safari/537.36" etag="SLPljGpX99O7F2yUznUL" version="16.5.3" type="github">
  <diagram id="f5cmFp1S1WbHOZJP-bvw" name="Page-1">
    <mxGraphModel dx="813" dy="449" grid="1" gridSize="10" guides="1" tooltips="1" connect="1" arrows="1" fold="1" page="1" pageScale="1" pageWidth="827" pageHeight="1169" math="0" shadow="0">
      <root>
        <mxCell id="0" />
        <mxCell id="1" parent="0" />
        <mxCell id="GrlQyEfPICOUheAgGjLL-1" value="" style="shape=image;verticalLabelPosition=bottom;labelBackgroundColor=default;verticalAlign=top;aspect=fixed;imageAspect=0;image=data:image/png,iVBORw0KGgoAAAANSUhEUgAAAeQAAAD9CAYAAABtAAQeAAAgAElEQVR4nOydaXCb13m2L+w7QIAgCXAXqYXURq2WZVleZEV2vaaxkyZNs06WdtpOpz+aZtpf7bRN2+k3bZq0nTaNm9ZN6sRJvCV2ojiWHVlOrNWyJFK7uG8gAQLEvn4/NOf4JU3FkiwAtHiuGY02Eu/B+4LnPuc5z3M/ulKpVEKhUCgUCkVV0Vd7AAqFQqFQKJQgKxQKhUKxKFCCrFAoFArFIkAJskKhUCgUiwAlyAqFQqFQLAKUICsUCoVCsQhQgqxQKBQKxSJACbJCoVAoFIsAJcgKhUKhUCwClCArFAqFQrEIUIKsUCgUCsUiQAmyQqFQKBSLACXICoVCoVAsApQgKxQKhUKxCFCCrFAoFArFIkAJskKhUCgUiwAlyAqFQqFQLAKUICsUCoVCsQhQgqxQKBQKxSJACbJCoVAoFIsAJcgKhUKhUCwClCArFAqFQrEIUIKsUCgUCsUiQAmyQqFQKBSLACXICoVCoVAsApQgKxQKhUKxCFCCrFAoFIqbjlKpVO0hXDPGag/gRlEqleQD0Ol07/g/hUKhUCwtSqUSOp3uHZqwWLkpBLlUKjEzM0Mmk8FgMGAwGNDr9fL/isVilUeoUCgUikpRKBRIp9NYLBa8Xi9ms7naQ7oqbgpBBrh06RJDQ0PYbDZMJhMGgwG4LMj5fL7Ko1MoFApFpSiVSmSzWZLJJPfee68S5EpSKpU4c+YM3/3ud7nlllswm80yRKHC1QqFQrF0EGHqcDjM8ePH2blzJy6Xq9rDuipuCkEG0Ov1rF69mj/4gz/AZDJVezgKhUKhqBKlUonBwUH+6Z/+qdpDuSZuGkEW58Y2mw2j0fi+OcRXKBQKxY2lVCphsVgwGAzvKy1QZU8KhUKhUCwClCArFAqFQrEIUIKsUCgUCsUiQAmyQqFQKBSLgJsmqUvx69GWf72fkhwUinKjfjYUiwUlyEuAQqFAsVhcdBZyOp1O1Ykrqm51K9z8hJmQ+F2hqDRKkJcA+XyeXC4nHcuErWgl0el0FItFOdlWYwxwefItFApyTHq9viqLFO04xBgqPQ7h/y4Wa9UUosWwSy0Wi+j1elwu16JauCqWDkqQlwizs7P88pe/JJvNYjRW/rELKzuTySSFuRr14qVSiVQqJa9vNBqrIkTFYpFUKgWA2Wye479eKcSiQHjAW63Wil5fkMvl5IJNp9NVzdgnlUoRDAa5++671S5ZURWUIC8BdDodU1NTPPHEE3zwgx8kGAxW9PqlUolcLsfZs2d56qmnaG1t5f7778fn81V8cZDP53niiSc4efIku3fv5u677664EJVKJTKZDI8//jixWIxHH32UtWvXYrFYKrpAyefzjI+P86//+q984AMfYM+ePVU5Qrhw4QKPP/44ZrOZT37ykzQ2NlZ8DIVCgWeffZZsNstdd91V8esrFKAEeUmRzWbp7u6mp6enotctFosUCgXy+TxTU1O0trayYcMGWltbKx4yzmazPPPMM0QiEerq6ti8eXPFfW6LxSLpdJpSqUQikaCtrY0tW7Zgs9kqdj/EIun06dNks1kCgQBbtmypSgjfYrHIaEFXVxcbN26s6PVF2H7//v0MDAyovAZF1VCCvEQQ4cBqhGhFS0yDwYDFYpGWdiaTqeKTv9FoRK/Xo9frMZlMVbkf2jNjvV6PwWCQ4fNKha3F+bEIlYsz5GqEaoW9YbXGIAS4kvdfoVgIJchLANH9RDsJV/r688cgxKjSE2ChUJhzTSGIlUT7DER2rxDGSo1FLND0ev2cpK5q7JDFOKB6z0OgeqcrqokS5CWASJgRf65GBqmYdMXkJ8ZRjckfWBT3QysElcy01j4D8Xft86jWM5k/rkqPQSwWFYpqoQT513ClCWKhH9orTSLaH/L5X/NuE8/866hSDIWgmuK1ENUYjzbqIlgs92MxcaVFxpXmNXFfF/qaarPYPvc3miUlyCJ5Q/xa6KHqdDry+Tz5fB6z2SzDquJ7C4WCPIsVr5nL5eSZqEDswAqFAqlUinw+j8vlkq+Vz+flueH8SaVYLMrX1O7oRChPfH2lQr7CWET8AuTZazXO3PL5vCzZMZlMFQlxakOZ+XyeQqEgS6e0Z6CVmCjEcxD3QXv2Wqnnof08iPp2cRZeqech6oZFGZ04jtD+3CyFM2Hx3nO5HNlsVn4WRI6GuD/Cj8BsNs+ZewCZdJlIJMjlcjgcDqxWa1WOlWDu/JnJZORn3Wg0YjKZMJvNi87o6EawpAQZIJPJyAxXESYUfxZMTU3R29vL+vXrqa2txWg0UiwWmZ6e5vDhw9x2220yMzebzTIwMIDFYqG9vR2j0ShFWvwAHDt2jImJCe677z4sFgu5XI7+/n7cbjfNzc1yAhOTazabZWhoCJfLhcfjkYsBsQjQ1muazeay37NcLkcqlSKdTpPL5SiVSjidTlwuV8UTs8S9jcfjJJNJAoFARQRACDBAIpFgenqaTCZDQ0MDDocDQE4W5UbUdEejUaanp3E4HPj9fqxWa0UXBdlsllQqxcTEBDqdDr/fj9PpxGazlf36QkBMJpP8WUun0+Tzebxer/w5XAqCDBCPxzl69CgXLlzAZDJRV1fHtm3bsNvtlEolOXdFIhHWrl1Ld3f3nOqCbDbLxMQEe/fuJRQK8aEPfYi2tjaMRmNF5hgtYr4T5YFHjhzh5MmTFAoFampq2LFjB83NzVVJCi03S0qQhSnE3r17CYfD1NbWYjAYSKVSRCIRrFYrTqeTaDTKqVOnSCQSPPDAA+j1elKpFOfOneOZZ55h06ZNeDwe4PLE8MMf/pCuri7a2tpkiDqZTHLgwAHa29sZHh5mcHCQAwcO4PF4WLZsGd///vfZunUrTU1Nc8LauVyOTCbDv//7v7N+/XoefvhhXnzxRerr62lsbCSbzRIOh9HpdPT09FBbW1v2+xaJRPjBD37A8ePH5c7kgQce4IEHHqioiYMQ44mJCX784x+TyWT41Kc+hcViqcj1xQ5i3759/OhHP2JiYoLdu3fz6KOP4vf7K3YvMpkMZ8+e5cknn+TIkSPU1dXxyU9+kq1bt1JTU1P2BYp4DqOjo/z4xz/mlVdeIZ/Pc+edd/KRj3yE1tbWsl4fkFGqQqFALBbj7Nmz/PSnP6WmpoYvfOELi6ox/dWcS18pfHy1x1oGgwGfz8fzzz/PwMAAX/rSl+bkbJhMJsLhMCdPnuTWW2+dE5UTERaLxYLJZOLkyZPs2bOHQqHwDjHWhrOv9B5v1H3PZDKMjIzw+OOPk06nMRgMLF++nPvuu++mPetfcoKcyWSYnp6mubmZW2+9FYPBQCgU4utf/zp33XUXt912GyaTiUcffRS73Y5Op6NQKFAoFNi3b580kigUCqTTaZLJJDMzM2zYsGFOeMjhcNDf3080GiWTyTA5Ockbb7zBmjVraGhoIBaL0dnZKUN+ogwnn89z7tw5wuEwGzdupFAo8PLLL7N+/Xrg8gLg/PnzHDx4kK985StlvVeC8fFxnnnmGS5evEgul8PpdLJnz56K74yLxSKZTIaf/vSnfP3rX2f37t1ks9mKXF+ERt98800mJiZYvXo1+/btY3JykhUrVrBr166KjAMuL5C+853vcOLECYaHhzl69CjFYpGOjg7cbndFIgbpdJpjx45RLBZpaWnhueeeY2hoiE2bNlVEkOHyxJ9KpXjxxRf5z//8TwYGBqSQLAZEKHn+EZm2ykBEXkSYWcw383NPDAaDfD1tOF58ndlspr29nY0bN3L48GEuXrxIV1fXHOOd8fFxenp6aGhokJE48fp6vR6bzUYgEMBsNst7mM1m5fGaGNv84xnxHsVrzT+2EOP+dSI6P7u+VCqRTqf5/ve/z8aNG3nooYdwOByYTCbsdntV3AYrwc35rn4NJpMJvV6PxWJhfHycUChELpdjzZo11NfXc+bMGWKxGJs3b8Zms2E2m4nH40xNTRGNRnG73Zw4cYKamhpqa2t5+eWX2bZtGx6Ph5GREWw2G1arlUwmA1yePE+ePClD1pcuXcLpdGK328nlcgwPD/Pmm2/S0dFBV1cXMzMz/PjHP+bDH/4wqVSK4eFhisUiq1evZtu2bRQKBRwOB+fPny+rw5QwrzAYDPT19bFixQr27NlDMBiksbGRrq6uiq1StWHqM2fOsG/fPlKpVEVLdMSk2trayvr16ykUCoyOjnL48GG5CKtUyUw2m2XHjh188YtfpLe3ly9/+cuMjo4Si8Uq9kxMJhMbNmxg586djI2N8dZbb5FOp9+x8yoXYvFrt9u55557uHjxIv/6r/9KoVCYk2tRLcTnYWpqiqGhIeLxOLW1tczMzDA7O0tbWxsWi4WBgQGSySSdnZ00NTVhsVgYHh4mHA7Lo7VAIEBTUxMzMzMMDg6i1+vx+XzYbDampqYAWLFiBRaLhQ0bNuB2u/m///s/7rjjDsxmM6VSiUgkQi6X45577iEej3P69Gm5wK2trWXFihUyZwYuR4PC4TDT09PEYjFWrlyJzWbj4sWLADQ1NWG328lms4yOjjI2NoZer6e2tpb29nZ8Pp+8D+l0mlAoxMzMzJwjBK2Fbn19PXV1dfJ7crkcY2NjHDt2jGAwyCuvvEJPTw8dHR3yNW7GXfKSE2R4u9Slv7+fvXv3smfPHhoaGohGo0QiEY4fP86qVavw+/0Ui0Wi0SgHDx5kbGyMdDrNq6++SiAQoLW1lYmJCT7+8Y9TLBbp6+ujr6+P++67j7q6Om677TZ6e3s5evQoy5cvJ5/Ps3HjRi5evIjX62V4eJhLly7R399PoVCgtbWVt956C6/Xi8Vi4YUXXqCnp0eOIRwOUygUmJ2dLXunJHH+lkgk6O3t5fXXX+fUqVNs3rwZu90uv6YSiCS3cDjMwYMH6ejo4Fe/+lVVHKVaW1vJ5XJMTU0Ri8Xo6uqivb29ouNobGzE7/fLBYnP56O1tRW3212xM1OLxUJLSwvZbJZcLkexWKS7u3uOLeuVwps3AvG6BoMBl8slj24W0yRdLBYZGhrif//3fwmHw+zatYtEIsHPfvYzVqxYQVdXF1NTU/T39+NwOPi93/s9nE4n3/ve96irq6OmpoZ9+/ZRX1/PH//xHxONRtm3bx/Hjh3j4x//OHV1dezfv5+NGzeyYsUKDAYDHR0dbN++ne9+97scOXKE2267DavVyhtvvEFHRwdOp5Onn36aY8eOcdddd3HixAlCoRBf/vKX8fv9wNs/+7lcjpdffplf/OIX/Pmf/znt7e309vZy5MgRHn30UTo6Ojhx4gQXLlzA6XQyMjLChQsX+OxnP8uOHTvka+Xzefr7++XmQks+n8dut2MwGKQg63Q6uTjo7u5mYmKCJ598kjfeeIPPfOYzrF27Vrra3WzcfO/oKhErN7ESzefzzM7OMjU1hcFgkFl8er2empoa0uk0LS0tdHR0kMlkOH/+PN/97nfJ5XK8/vrrvP7666RSKV5++WWeffZZXC4XNpuN/v5+PvCBD9DS0sLs7CyDg4NMTEzw8MMP4/V6OXDgAHfffTfbt2/HaDQyNDSETqdj3759WCwW1q1bh8lkYmhoiN7eXk6dOsXAwMAVs8RvJDqdjng8Lm0Nz5w5w5NPPsnf/M3fcOTIEXK5XFmvLygWi8Tjcd56660FJ/1K1Y+K0OHZs2f59re/zb59+xgcHGR8fFw2SKgE2sxusUvctm0b9fX1FXX6KhaLXLhwgW9+85uMjIwwNDTE9PT0nG5a5US8V63L12IRZDF3NDQ0EAgEpGXsb/zGb9De3s6RI0eor6/nkUce4Z577uGtt95ienqaSCTC4cOH5TFIbW0tx48fB6ClpYWdO3cyMzPDgQMHOHv2LMuWLWPLli0ywclisXDLLbdgsVh49dVXicfjpNNpLly4wIYNG4jH4zLCd+edd9Ld3c25c+dIJBJzxq/X6/F6vXi9Xvr7+0mn09jtdjo7O+UuPxqN8vzzz1NTU0N3dzdbtmzhwoULHD16dI4BkMViobu7m9tvv50777xT/tq5cyd33303t9566xz/chHibmtr4w//8A/58pe/zMMPP8zBgwd58sknSSaTN62By5LbIYvzWr1ej9lspq6ujrvuuotisUgsFiMcDrN379455UbiB37NmjXA5XDdhz70ISKRCG1tbTQ3N8vzlXg8TigUkjvLe++9l7GxMcbGxti8ebPcDScSCbkSXLNmDX6/H4PBwP333080GuVb3/oWjz76KD6fT64URci6t7eXvr6+st8rvV6P3+/nT//0T/nCF77Am2++yfe//33279/Pa6+9xq233jqnHKtcpNNpfvazn3H69Gluu+02JiYmZKbzzMwMtbW1c5ymyoWISnR1dclIyYULF/j5z3/Opk2bKrpjNxgMzM7O8pOf/ISVK1eyZ88ebDZbRcagFcDly5ezZ88eBgYGOHToEAcOHGDNmjU4HI6yPo/5bmviPBbKuzO/FoSoLV++nGPHjtHY2EhDQwPbt2/n0qVLdHV1EQgEGBsbI5fLodfraWtr40//9E9xu90cP36cS5cuyTNck8lET08PH/nIR/iP//gPCoUCf/AHf4Db7Z6Tcbx582YefvhhXn75Zc6fP4/NZsPv99Pa2orZbOazn/0shUKBc+fOcfDgQRkaF4jFlrCWne+sJ7727NmzvPnmmzQ1NTE7O0uhUOCDH/wg3d3dczq7pdNpRkZGZDa+IJ/Py4VlV1cXbrdb3jez2YzJZMJms+FyuXjsscfIZDI8//zznD9/nq1bt1bwSVaOJSXIxWKRRCJBoVDA7XaTSqUoFAoMDw8zPT1NqVQiGo0Cl0VXfBAjkQihUIhbbrmF3t5enE4nW7duZd++fUQiEfL5PDqdjmPHjslV8MzMDB0dHdhsNvbu3cvmzZsxGo0Eg0GCwSDj4+OUSiVqamrweDzo9XrS6TRTU1N885vflEb/k5OTFAoFstmsTC4rFAqyFKtcaP19HQ4HZrOZ3bt3s2LFCjKZzILhp3IhsopffvllfvSjHxGLxSgUCvziF7/gkUceob29vez1kuK8K5vNotPpWLlyJX/0R3/EV77yFSYnJyu6MxOf48OHD3PgwAG+8IUv4HA4iMVi+Hy+imRZi0QenU7H3XffTTab5dixYySTSVkzKuqEy402SrLY3LZEspL4fGprtYXgiaMH4XMwODjIsWPH2L17N21tbRw7dkzeT51Ox6ZNm2hsbGR4eJhIJEIgEJgjyDabjUceeYQXXniB119/HYvFwh133DGnfPPpp5/mjjvuoKenhxMnTrzjvgmhnJ8PoO1pLrwS7rzzTjo7O7FarVLIRcWBeN/aTZBARCEXivZpr200GrHb7ezcuZOXXnqJZDK5qJ7xjWRJCLIQVvFhzOVyNDU1USwWCQaDFAoFDhw4gNPppKuriw0bNshzUlHvaLPZGBsb4+jRo2zZsgWLxcLJkyfx+/1s2bJF1iM3NTXJDMBwOMyhQ4cIh8OEQiFef/11HnvsMRwOBy+++CKFQkGe/cDlD/vPf/5zGUIfGxvD4/FQLBYZGBjA7XZTKBQYGBiQGZLlSqDR6XTkcjnS6TSnTp1Cr9ezfPlynE4n7e3tdHd3Y7fbKzLh2u12du3aRXNzM6lUikOHDvHKK6+watWqitUh6/V6wuEwp0+fpqGhAafTSV1dHS0tLWzYsKGi5V+pVEqGzRsbGxkYGODcuXOsXr2aW265pez3o1AoMD09zblz56irqyMQCLB8+XJZ+mez2eYkV5UTIVTCnEQk3y2WXTKw4CJhoQWE+Nl+4okn+OxnP8uGDRt47bXX5DksQCwWo7e3l4997GM8++yzvPzyy/h8PlpaWqTYmUwmGhsbWbNmDfv376enp4f29nYMBgOjo6P88Ic/JBgMcvvtt/P666/LhYBWbMXvohGM2AiIrGtAZvQfOXJELgpmZ2dJp9OsXLlSPgOr1UpXVxfLly+fU6KoXdTN/6yI9yz+v1QqycoUUZ2ymJ7xjeKmF2RtqYBIvRflTPl8nlAohNFopKamhpqaGoLBIGfOnGF8fFyadtTW1nLfffdx+PBhDh8+zLp160gmkwA0NDSwfPlystksNTU1OJ1OjEYjHo8Hs9nM+fPn+fCHP8z4+Dg6nQ6bzYbdbmdmZoaLFy9y2223kclksFgsOBwOdu/ezfbt2/F4PFitVpnA1djYSHNzM/l8nlQqJX+QxW5Er9ff8FIAnU7H7OysLGnZvXs3dXV1rFu3TpaHVQKr1cr27du59dZbyWQy+Hw+jh07xpYtW1i+fLl83+X+4YxGozz99NOUSiW2b9+O1Wpl48aN3HXXXWXvZaydvEdHR3nqqac4ceIEFouFQ4cOEQgE2Lx5c8UmqEgkwne/+13MZjP3338/8Xic+++/n507d2K1Wss+WWqdwmZnZ5mcnMTr9ZLJZBgbG5M1tdXoXqVF+AaIxMRcLkcikZACU1NTI+cnsfObmpqSi7/BwUEymQwnT54kEAhw+PBh6urqWLt2Ldlslh/+8Id4PB4+9rGPAcj3a7PZ2LVrF9/61rdYtWoVDodDCu/09DQ2m43R0VFOnDhBOp3m3LlzOBwOeaQn5s26ujrsdjvnzp3D7XZz8uRJUqkUsViMdevWsXnzZn7wgx8wOTlJIBAAYOPGjXPKorSNU7TPQ/v50P5ZlKceOnSIkZER1q9fL8coEmZvNiEWLImkLiHGAKOjo7S1tTE1NcV//dd/sXnzZpqbm4HLE38gEKBUKvHUU09JMbRYLLjdbkKhEB//+Md5/vnnOXLkiNwFaIVQnPc4nU48Hg87duzg2LFjvPbaazQ2NuJ2uymVSvh8PiKRiEziSqVSFItFvF4vTqeTn/70pzzzzDPE43GMRiO1tbWy5EhYcObz+XfslG8korxi9+7dmEwmXnrpJfR6PQ8//DAtLS0VW6GKMjWr1YrD4aCnp4c/+7M/47777pP3otwlUHq9nvr6enbt2sXU1BTf/va3MRgMfOITn6C7u1uG68qFeL5iZ9DT08MXv/hFfvu3f5uPfvSjPPbYY9TV1VUkYqHX66mrq2P79u2cO3eOp59+mpqaGj7zmc/Q2toqfybKORaxOMlmswwPD7Nq1Sq+9KUv8cADDxAKhaRdbbW5ePEiv/zlLzGZTDKX5OjRoxgMBo4fP04oFOL06dPo9XrOnj0rz5y/9a1v8dxzz8n5SLhVvfTSS1gsFux2O8FgEKvVyk9/+lMOHjwoF+fi57Knp4eHHnqInTt3SrvMmpoaVq1axf79+/nbv/1bPB4Pdrtdhq3Pnj0r81QKhQKNjY2sWrWKxx9/nC996UvYbDYZHfR6vfzWb/0WbrebZ599lqeeeopoNMrq1avn1CqL8+f5iyNtKHu+IOfzeXp7e/na177G7//+7/ONb3yDVatWyVIucbZ9s7FkdsjFYpGZmRny+Tw+n4/9+/fz6U9/mvb2doaGhkgmk/KsorOzU1q1CS/qvr4+Ghsb2bFjB1NTU6RSKQwGAxMTE5w/f550Ok0kEpnjrRsMBtm8eTO9vb1EIhHeeOMNVqxYQTwep7Gxkc985jO8+uqrRCIRHn74YTo7O3nppZf41a9+xf3338+6devkD5gIe2ttI1999VXWrl1LS0vLHBu8G3XfxJnPjh07ZChUu+qtRnG+wWCgs7OT5cuXUyqVylqLrUVb83r77beTzWYxm804HA65oyjn/RARHb1eT0dHh4yWwNvPolJntjqdDpfLxSOPPMIDDzwAvF3fX8ksb4PBgNVqZcOGDbI2XEzuYjzVRCQrfe1rX5N5JgB/+Zd/SalUkue+v/M7v8PHP/5xWd3xd3/3d4yMjNDe3k6pVOLTn/60NPPYvXu3fO3t27dzyy23yNcSoWW4fD7b2trKRz7yESwWi7wvLpeL3/3d3+WRRx4hEAig0+l4+OGHpcPb5z73OeDt3tCtra38xV/8Bf39/XR2dmI0Grnzzjupra3FZDLhdrv56le/Sn9/P7W1tXR2dr7nqISIJD722GNs2LCBYrFIW1ubzGWp5Ge90tz0gixWZ6LY/J577mFqakqaXESjUZmg1NLSgl6vZ/Xq1TQ0NODz+dDpdIyOjtLQ0MCmTZuw2Wx8/vOflwJvMBhkqCkYDEpLTWG1OTg4SGNjI+vWrePo0aMMDAzQ1tbGhz70IbnT+eUvf0kymUSn03HHHXdw//3343Q6ZYnULbfcQrFY5Ny5c8DlrONNmzYxMzNDLBaTCWg3Eq25gjgHEosDrQd4pRGZ6Vq3okpdV6zyxf2utAGFuJ7BYJB+0eLa838vJ+IZiDNL7Tlfpe6Ftn+yGIfIExHPZjGUxthstjk5LAsham7Febjf76e+vh64fM7q8/nkz92VzqLhnYlYdrtdHs8B0g/f6/VSU1Mjf7a9Xq88xxWZz/B2mV9DQ4OsAhGZ49r309jYSDAYlNe/EYKs0+lwu91s2rTpHf+ufa83G0tCkEVnk7a2NgDpIpPNZrFarezYsYONGzdKQw69Xo/H45G7koaGBlwuFxaLBbPZTHNzM6VSiXvvvRez2SwTwJYvXy5XcFarlZaWFmninkwmsdvt+Hw+uavS6/UEg0G2b98ux7py5Ur557Vr17J27dqreo83Gu2Et9ioZAKVQLv7rca5pHYyWgzPpNrWhVe6B/PLoarNtY5n/mfrRt7nq/nczveurtY9rFaXqWpz0wvyQoiJzWg0ksvlsNvtOJ1OubLUnmkI0/b5DeR1ussOSeLMWLuS1el02O122X1Hr9fLdmbalZ329eaPbf6fbyaqffZT7esvFhbTfVhMY1EoqsWSFGSBticxIBOl5pdsaI3Vtej1etloQpvAIMJlJpNJZnaLcKc2rHezCu6VuFGTrvZ13q/3cKHQo+L6KVf5n0JRSZa0IC/Utm9+yEYkiMA7w0fi3xcKBWnP+6qNOFfSdoe51u+H9y4aC9VeXs9rvpdxzJ+4q2EkIRZl4pe2pns2/1sAACAASURBVLLSY9GaMtyo53w9aBeq1fhMLDZDEcXSZEkL8lJBTDaiFjKdTl/X62hD7NcygWnNG0TGey6Xkx2brhVtt5drnURzuZwcgygbey/3Q4zjWhB1lsJ0RjyT6yndup4xaJ2WcrncnDFczw5TmzSk/fvVon0m1/P5vN7PpUBUYohfCkW1UIK8RBDOWzMzM0xMTFzz94rSGrGjE5PXtYiyaA+YyWSIRCIyU/haxyIiFVpziKsVgXw+/45mIvF4/JrGoDU6KBQK19xkQ2T8CyGKxWJMTU3JjNyrRSvgWpelq0EcwYgOYolEglAodF3RExFVEs5K1/oaMzMz5HI5stkskUjkqj6f2h21sKLULvyuBSHiotJBoagWSpCXCCLz+6tf/arMCr9axITV1NTE2rVrZa/Svr4+isWi9NkWJUFictR23xEm842NjYRCIf76r//6umqIdTodq1atknaiQlDEdc1ms6xR1IbFxa66WCwyOTlJY2Mj+/fv5+jRo9eVyRoMBrnlllukn/m1ZECLnWA+n5e9a5999lm54LkS4n2IRYjRaGT16tXEYjFGRkbmNK+/GorFosz+/8lPfsKRI0euWkzFgsxkMrFr1y7S6TSHDh26pkWaIB6Pyzr6f/7nf57TJEP7+RHX1Qq/zWYjEAjQ3t6O2WzmrbfeuuYFlnj9cDjM7bffviSzexWLAyXISwCdTkdHRwd//dd/TSQSue7X0Ol0eDweDAYDU1NTbNmyhVgsRjQaJZfLUVtbi9PpxGQyzcko12asu91u0uk0mUzmukO0RqORdDrN4OAgY2NjsuG73++X9bHzrUTnT7I1NTUkk0lyudw1C4i4vsPhwOv1otfrcTqdV/1exFmx8AIXjnBX8z0ivBqNRhkaGmL16tXYbDYpWFfzXua7IomF07Wc62cyGUqlyy1MGxoaMBgMbN269bp2mIVCAYfDQaFQkKF7sdsV4xUWmdlslunpacbGxmQf5EAgQENDA9lslm3btl1X/bFYUAaDQbVLVlQNJchLALHzEjXO17oDELsebROMZcuWkUqlSKfTpFIp4vE4xWJRTtRigrNarVitVmw2Gw6HY46L0pXcvq6U3CQmSmERuH79emZmZgiFQsRiMWkj6nA48Pv9+P1+aY6vTa7Titf11DuKHZrw1RY7f5vN9q67XHHd+e9Vm+h1pe8R93VycpJTp06xceNG2axdiNa17va1Zi9X87Xi92QyKRu1CL9jUeJ3La8l/qw9uxURhGQySTgcJpFIkEgksFqteDwempqa2Lp1K7W1tXPKCYHr8nQXEQd42wBGoagGSpCXAOIM+HqdpbQ9UbVYLJY5GaoifC3OaTOZDLFYjHQ6TSgUkmVmHo8Hi8WC1+uVYiKETOsCphXm+e5B4voej4eWlhbS6TTxeJzp6Wmmp6c5deoURqORhoYG6SEuJmuxAxOvNb/R/buhvb7VamVycpKxsTGCwSBut3vO+1jo9d5tBzpfpIVgFYtFIpEI58+fx+/309XVJRcB2u+9lgXBla4/H5E3IJ7zzMwMAM3NzfIZan/Nv472nL9UeruTDyDPfDOZDOFwmOnpacLhsKznt9vttLa24nA4pJeyWNRpPyPXa5yiXWio3bGimihBXiK8l4nmSpP8Qv8mSsnELjYYDMpJvFgsEgqFOHfuHKFQSNZ9t7a2yt7RYrcjGs4LcRMTuji3nH9t4StdW1tLMpmkUCgwNDTEwYMH2b9/P62trWzduhWv1/uOunJtT9qrQetiptPpCAQCXLp0iUuXLrFixQrZWedKO7WruY62JAre3jUePHiQ2tpaenp65tTPXwvX81kQi4JSqcTQ0BDxeJwVK1bIsPuVXlO7+9QmfAmBFyJ87NgxwuEwJpOJQCDA+vXr5fGIiKRcTfTheliqvgCKxYcSZEVZEDsXYZIiwqINDQ3U19fL3qrhcJhUKsXAwIDcQQuLUmExarVaMZvNsqG7OJteSIgMBgNOp5N8Ps+yZcvo7OxkZmaG/v5+Dh06JJ3XfD4fTqeTmpoaHA4HJpPpugzrxS67ra2NiYkJxsfHCQQC2O3297zjEvdNtMw7evQoLpeLdevWlb2b0kKIdqXi3gp/8yshRFeUlyUSCbLZrGzfl0wmSaVSmEwmVq1ahcfjwev1YrVayefz0jNcNBNQgqm42VGCrCgL4ixRCLFWoAU2mw2PxzNnBx2LxchkMsTjcSKRiCwNgstm+SaTidraWlwul9wpi9fXJvOIjG/tIiCTyTA1NcXo6ChDQ0OkUincbjd+v5+2trZ3nIPOT0i7Ejrd5RadwWBwjiiLRK+rDYXPRwhaOBymt7cXt9vNunXrcDqd73B9Kwfa44hMJiPFuLW1VUZCtI0l5u+G8/k84XCYyclJUqkUs7OzmM1m2RO8o6ODmpqaOWfA4l4tFk9lhaKSKEFWlIX5YcAr7WbnI3aWYmcoxDmdTsuM7pmZGZmN6/F4cLlcOJ1OnE6nDGuKsLcQC5PJhMlkwul00tjYSDqdZmpqipGREQYGBujt7cXr9dLS0kIwGJxzTjk/KUyLNolJ9AkeHh5maGiI9vb2OX7m1yqeYoHy1ltv4XQ66enpWTB7vVyIZ5DP55mYmCAajdLW1ibrpcW5ttbUIx6PMzk5yczMDNFoVHbmqquro7GxkZqaGpxOpyx5U7teheJtlCArFh3aXalI4snlcvj9fnmuLGpoo9EoyWSSwcFBcrkcFouFuro62TbObDbPySQWr22322lsbKS2tlY6iA0ODtLX18evfvUrmpubaW1tpb6+Xi4S5ieALYToQzsxMcHFixdpb2+/rrrvYrFINBrl4MGD2Gw21qxZU/bez/N33KLWeHR0lHQ6zbJly7BYLDIELcqeJiYmmJycZHp6Gp1ORzAYxOv10t3dLbufiUWSCEMrIVYo3okSZMWiRuwutQk94nen04nf75eCm8/nmZqa4uzZs7IftV6vp76+noaGBhnyFiFRg8EgxVbstru6ukgmkxw5coQDBw7gcrno6uqisbFRlnDNP8Oe32LPZDLJXfj4+DjBYFAmP2nHvxBCBFOpFG+++SaFQoGenh4Zpr5SSdh7QRua1mZCZ7NZxsbGmJqaor29HYPBQCKRIJVKMTMzw7lz54jFYnIRtHPnTtxutzzz1Y5XlRMpFO+OEmTFomR+SPZKIWOtOIndaUtLC/l8nlgsRiKRkDWzExMTMgQtRFmULolaaVGWtWvXLuLxOKFQiPHxcUZHRzEYDFJ8ampq8Hg8GI1GGdoG5mQ+NzU1MTY2xvDwMM3NzVit1jnn0wu9l1QqRSQSoa+vD7PZzNatW+eIsbg3NxKtFap47Vwux+joKIODg9hsNi5evDjHLlWv17Ny5Uq8Xi9+v39O6F47PrUTViiuHiXIivc1V5r8hauYx+ORIiIaWogdaCaTIZFIMDs7SyqVAt6ubRauYo2NjdTX10tzikgkwvj4OJcuXUKv1xMMBgkGg/J7tElcVquVQCAgz6qFechC579aB64zZ85gt9tZu3atNFO5kWhLj8R9EWH7UCjE7Ows4XCY2dlZnE6ndNISfcOdTieALEVaqAxNoVBcO0qQFTcl8xOpCoUCNpvtHT7J4jw0n88zOTnJ7OwsFy5cIJFIYDabpQtVfX29NCHJZDLMzMxw9uxZ3njjDSwWCytXrmTFihXU1NTMaXZgsVgIBAJcvHiR8+fPs3Llync01dA2Rejt7cVoNLJ27VpcLtccT+6r4Wq+VlxP7HgjkQgDAwOMjo4SiUQwm83Y7Xa6u7sJBoPSjlQsOEQ29WJoLapQ3EwoQVbclAj3L2BOkwvxf+Lvwne7VCpRU1Mzx3UsGo0SDoeJx+McOXIEAJfLJUPca9asYc2aNUQiES5dukRvby8+n4/Ozk7q6+sxm81YrVYsFgutra1MTk7S399PS0uLrLEW2cmJRIJjx45RKpXYtGmT/P9rzabO5XLSVEXrriVaLAoRnp6eZnJykkgkQrFYpKWlhdWrV2M0GgmHw7S2tuLz+eTud34J2Hx3LIVC8d5RgqxYEswXjnc75xQC7Xa7KZVKdHd3y7paYWwxNjaGXq/HbDbj8/lob28nFovR19fHkSNH8Pl80rrT5XLh9XpJpVKMjo7S1NSEzWajUCgQj8c5duwYyWSSu+66a44YXw3apCxtO0jx2qlUiqmpKSKRCJlMRmasNzU10dPTg8Vikc0bZmZmWL58OS6XS+70r+Z+KhSK944SZIXiCoj6Y7EbtFgssiuREDAR8k4mk6TTaaxWK8FgUApgKBTi9OnT0hWsvr6eUqnEpUuXWLZsGel0mhMnTmA2m1m/fr0UY233pXdDhJDFGXQ4HCYSicg2hKJ0TCwC3G639PYGpOf4zMwMgUAAt9sNKNFVKCqNEmSFYgG0TSzmI5ptaN2ktLvTXC5HNpuVJhnRaJRQKER/fz8XL16UmdyJRIJwOEyxWJRinM/nyefzcocsRFObBa0Va2FnOTk5yfj4OMViUZZ4tbS0yFIvUQ8s3pv2dVKpFNFolIaGBrxe75yMboVCUTmUICsUV+DXidJCdbXiPBreDnmL/rrZbJb+/n5mZmYYGhpidHRUdsISZVrC17lYLEqxN5vN0i0LIJvNUiwWSSQSDA8PMzo6SjQapa6ujmAwSGdnpyzfEolY89E2iojH4wwPDxMMBvH5fGVr4KBQKN4dJcgKRRkQO2yj0UihUMBsNtPR0UE+n6ezs5O+vj6y2Sy1tbWMjIzwyiuvoNPpsNls8rzZ4/FI60nh7S12tKIeWvQFFrtarcf1lYRVJK1FIhEmJiYIBAL4fD4lxApFlVGCrFCUCbE71Tp6ZTIZzp8/T6FQYNu2bcBlG89wOIzZbGZ8fJyBgQHOnz+PXq/H7XZLhyyr1Yrf75dZ3BaLZU55l9YiVGRaz7epnJ9BXl9fj8/nUyVMCsUiQAmyQlEm5ltqZjIZTp06RS6Xm5Pd7HQ6Zeg5nU7PaUE4PDyM2WymqakJr9dLJpNhcHCQ/v5+TCaTrJP2eDzYbLY5jlnC+EPr4y2S0cbHx/H7/XNKmxQKRXVRgqxQlAltTXMikeDEiRNMTk6ybt06RkZGSKfTDA4OYjQa5Y63ubmZpqYmacaRz+cZGRnh3LlzHD9+nPr6elasWEFDQwPZbJbp6WlmZmbo7e1Fr9fjcrlkR6Xa2to5JiUmk4lEIsHAwAD19fV4vd537J5BZVcrFNVCCbJCcY1oy5HEnxf6vVgskk6nSaVSnDx5khMnTuD3+zl27JjsRrVr1y4Zlga4ePEiyWQSp9MpXcUcDgcdHR2kUin6+vro7e3l5MmTdHR0EAgEpE+2aJM4MjIiS7PMZjO1tbXU1tZisVgYGRnB7Xbj8XgAZOa21ixF65mtbQ6hhFqhKC9KkBWKa6RQKACXBUuUI4la4HQ6zezsLLFYjNnZWeLxOOFwGJfLxdatW/F6vXi9XmmxqW02USqVaGxslCVMTU1NsnGFxWLBbDazZcsW1qxZI0udzp49K9saulwu/H4/mzdvxmQySb/uZDLJ8PAwxWIRvV5PLpdjdnYWs9mMw+GQjTVEVy0xJtGIQyDKphQKRXlQP2EKxVWgrf0VFpRwuQ44EonIWuNcLofNZsNkMmGxWBgbG8Pj8bBp0ybZmlD0VZ5vSQmXW0rqdDomJycZHh6WoixMSsT3WiwW6uvryefzMgNbdLQCaGhooKmpidraWtkT2m63yz9ns1my2aw0BBEmIi6XC6fTidVqlYsGbeKYdrxqx6xQ3FiUICsUvHtTBpEgJZpAhMNhRkZGGBsbY3p6moaGBjweDx0dHdJc4+TJk1gsFnp6eqipqZFZ0dpEK20WtBA+h8NBY2MjZ86cYXh4mNbWVpmoJb7eYDBgs9koFovU1NTQ2NgozUh6e3t56623ePPNN1m9ejVWqxW3243P55Nn0+I9iS5PyWSSkZERuZuOx+N4vV7q6uqw2WwEAgGcTuec3fP8DG6BEmqF4vpQgqxY0mgbMAiEYOZyOTKZDNlslkQiwczMDIlEglgshsFgwOfzsWHDBpkVLYQomUzS19dHJBLh1ltvpaamZk7PZC3zxUvsRG02G8uXL2dwcFAad2jLnLThYyHyRqMRi8XC9u3b2bx5M8PDwwwNDZHP5xkbG2NiYkJ2rbJYLLLrlHAOczgcGAwG2fBidnaWaDQqvbZ1Oh1OpxO73S7D3FoXMPEe5/twa8enUCiujPoJUSxJtKJbLBYB5FlwKpUilUoxMTFBNBolk8mg0+nw+/3U19fLXac2lAzIbOrTp08zNTXFtm3b8Hg815wQJb7eZrPR2trKyMgIoVCIQCAgzUYWapah/bdcLkepVKKzs5Pa2loikQgjIyOcPHkSg8GA0+lk2bJl+P1+aT4iXluv10vBraurkztpIdLJZJJwOEwymZTnzKLBhtPplOfd2vpr8fu7NfVQKJYySpAVNxXzQ89X6uQkkrC0Z8DhcJhEIiFF1uFw0NLSIneF81sizi8ZSqfT9PX1kclk2LRpEx6P55r7GWsxGAzY7XYCgQBjY2MMDg7S3Nw8p9Z4/vsSdpijo6M4nU7q6+sxmUw4nU6ampqIxWKEw2Gmp6e5ePEiJ0+exG6309zcjN/vx+l0SjEVC41CoSBF1+VyAUirT5E0JjpgTU9PyzN2i8Uid+M1NTVyd68V5vn3UIm0YimjBFlx0yAynuHtnr1CDOefAU9MTBAKhRgbG0On0+HxePB6vbS1tWG32zEYDFitVplEJQRw/g5Pu3s8e/YssViMdevWyfPa95IAJYRLdGYaGhpieHiYlpYWuSAQmdPivWUyGUZGRrDb7TQ0NMgwt6C2thav10trayvpdJpkMkkoFOLMmTMcOnSIxsZGOjs7pWGIuJeA3JkXi0XZE1q7uBH3QiSMpVIpmWx25swZDAYDbrcbv9+Pw+HA5XJhNpvnvAdhAaq9b+IZKjcxxc2OEmTFTYFWfHU6nQzZivPQbDbLzMwMkUiEwcFB6YgljDj8fj86nW5OR6SFdqHzEa/f29vLhQsX2LRp05ySpveKCCU7HA5aW1u5cOECkUgEv98/pyuTEMPh4WFMJpM8c54/BrHAEElhHo8Hv99PW1sbly5dYmBggJ/85Ce0tLTQ2tpKfX09Vqv1HYsLrWhqhXJ+b+ZgMAhANBplfHxchvRzuRy1tbXyXonGFtpwt06nI5/Py2sttChSKG4mlCAvEW5mFyZt68PZ2Vm580smk2QyGSnIFosFl8vF9u3bcblcMglpoVDq1VyzVCqRTCY5ffq0TOAKBAI3RIjnI86U29vbmZiYIJ1OEwwG5Q5zdnaWyclJDAYDjY2NvzaBSrxH7c7TarWyatUqVq5cKc+Ix8fH6e/vx+PxYLVa8Xg8speyCOvPv1/ivsz32PZ6vfh8PllypdPpiMViJJNJ4vE4/f390sjEZDLJJDGr1YrFYpF11trnNP99vJfP9s3886F4/6AEeQkgsoiz2azcIVUSIZjAnEla/P1a0SZhidaEExMTsvdwLpfD7XbLs1+bzYbX68VkMskw7PyzYBFyvZqkI5H8lclkZDa1KG3Svt8rnR3P95gWIdtfdz/E19tsNnw+H+Pj44yPj0sLzfHxcYxGIw0NDTJcrw3hX+kewuXzYCGi4h45nU6CwaCsUw6Hw5w5c4ZsNovb7aa9vV0uCIQwa9/v/LNhrduXKLvy+XzU1NRQKBRkmDuTyUh3M5FYl06nMRgMuFwurFYrdXV1OByOdyS3GY3GOffyahGZ9uL9q2xwRbVQn7wlgFaQ4fpE8L1eX0x42slb2/TgWtDpdEQiEbmDS6VS6PV67HY7wWAQr9eLy+XCZrNJcRLvWSs+hULhiglSvw4hxhcuXGBoaIhVq1ZhsVjI5/NzhO5KiDEAc+p5i8WiXDD8OkSZUigUkkKm1+vxeDwUi0X5nK+ENrw/XyxFiFj8m9gRBwIBZmdnmZqa4tKlS7z66qtYLBaWLVtGe3u7tOK82lD//LHo9XpsNpssxRIimU6nSSQSpFIpxsfHyeVynD59mmKxiMvlIhgMSv9u7WLrWhDhfpPJRKFQwOFwqJ2yoiooQV4C6PV6Jicn+Zd/+RcmJiYqvgPQJj8FAgGmp6fJZDJYLJbreq3u7m4KhQL9/f3SotJut8uJ2GQySXHT7oDhsgBEo1F8Pp/ceV1PspA4+xwfH+ell1665vNNEWK3Wq0kEgkZlr3ajOxCoYDVauWuu+5iamqK48ePy0XP1SJEL5FIYDabpXe2YH5IGCCbzcpyMbjcOrKtrY1iscjw8PB1CVk6nSaXy8lyK/H5FDkAYizinolFg9Vqxefz4Xa7aW1tJRKJcObMmataFGkRiwKz2cznP/951q5dqxLIFFVBCfISoFgsMjY2xoEDB3jwwQdpbm6u6PXFJH369GmefPJJ2trauP/++6mvr7/m1xJOVsVikaampjm7Oe3OT/QDFtcX/14oFPje977Hc889x3333cfOnTtlCPVaxqAtCdKGuq9GUMXYvvrVrxIKhXjsscdYs2bNVbdBFIsMcfYbDAbx+/1zdt7vhrhXQ0NDfOMb3+Cee+7h7rvvXvA64uuvFIYWdpwrVqx4R+j6ahgYGOCb3/wmO3bs4Pbbb5fZ22IM4npatzJ4eydsMBiwWCx4vV6CweB1CXIsFuM73/kOw8PDrFmz5pq+X6G4UShBXiKImtY77riDDRs2VPTa4jzT6/Xy9NNP09jYyJ49e2hvb79m0wxYeOd2tWSzWQ4ePMiJEydYs2YNDz74IE6n85pf571QKpVIJBL813/9F8lkkm3btrFr1y4sFss178yu515oy7/OnDnDd77zHdatW8cjjzxyXUcI75Xjx4/z1FNPsXbtWh566KHreh7XsxAQCCezH//4x9f9GgrFjUAJ8hJClPVc647wvSIEWZwf6/V6ablY6fNseDuhS3RJqsb9yOVycjEinolIkKrE9UXyk0iMEsYf1RBkUSImMqsr/Tz0er0s61KCrKgmlZ8NFVeNNgSrUCgUipsbtUNepIjzwFKpdNVniwqFQqF4/6IEuYxcyWxgfqnJQt8nSoVEl5yFwmlKpBUKheLmQQlyGbmS8Aq7RdFdZ6HvKxQKDAwMoNPp6OjokCUxIoO0EjaC7xYur+SCYKEs30qPQXtdQbUWRQs9m0o/j4VQi0SF4vpRglwGhKBGIhHeeustVq1ahdfrlckq6XSaF198EZ1Ox4MPPihFOZfLyTrLfD7PgQMHCAaDOJ1OrFYr0WiU06dP093dTV1dnXRVEiUhNzJBShsyT6fT5PN5+X/Cc1gkZ5UbbZvEXC4n64dtNtuCfs3lQJRQaWthM5kMdru94lna+XyedDpNPB6X9bviM6L1nC4nmUxGLg7T6TSA7I9ciTp3Yb8JyOYe+Xweo9GI2+0u+/UVinKgBLkMCEHO5/M888wzNDY28sUvflGKZjabZWJigubm5jnhaJ1Ox9jYGN/61rf46Ec/yuzsLGazmb//+7/njjvuwGg0cvz4cTo6OoC3DTfm2y/eyPchPIf37t3L2bNncbvdbNiwgVtvvbViQiRcxqLRKENDQ7z00kvU1NTwyU9+8rrMRa4H0bAik8kwMDDA2NgYv/zlL9mzZw/bt2+vyBgE+XyewcFBnnrqKV5++WU6Ozv51Kc+xaZNmyqSbyAWgMlkksnJSU6cOMHx48f5xCc+QWdnZ1mvLTAajWQyGRKJBFNTU5w/f54XXniB+++/nwcffLAiY1AobjQqy7oMCEE2m8309PTQ0tIyp62ccFSab2ohRHV4eJg333yTkZER3nzzTex2O1NTU0xMTLBixQpqa2vJZDLS57ccYizeRzab5ec//znPPfccH/3oR3G5XHzlK1/h8OHDsqNSuSmVSmQyGU6dOsU//uM/8o1vfIOLFy9KT+hKIHaD0WiUw4cP8w//8A+88MILxGKxilxfSygUYt++fUSjUerr69m7dy+PP/44k5OT12yKcb0UCgWmpqbYu3cvf/VXf8W+ffuu2jr0RiBaNabTaV577TX+/u//nr179xKPxytyfYWiHChBLgPFYpFQKMS5c+dIpVK0trYClycREY7WmjPE43GSySRwOWx91113MTMzw4kTJ9DpdKxfvx6TycT4+DjpdJr+/n7eeOMN/ud//odTp06RyWRuuDCJhcPs7CxvvPGGbPnndrs5e/Ysvb291+QM9V7H4nA46OrqorW1lUQiMaeOtxIIi02fz8eOHTtwuVxkMpkrNm8oJ0ajkc2bN/O7v/u7fP7zn8fj8dDf38/MzEzFnofJZMLv97N161bpOV3J5yFqp30+H+vWrcNisZDNZqWlp0LxfkQJcpkQHsHHjx8nFouRz+fl+aM4E83lciSTSf7f//t/PPHEE2SzWQKBAL/xG79BJBKRHr+HDh2itbUVm81GIBAglUrx7W9/m8bGRrxeL8CcM94bgdhxR6NRQqEQ6XRahtxF/1/ha1xuhHFDTU0NtbW1wLU3MXivCAMPh8OBz+eragOCuro6enp6aG1tpaurC5/PR1tbG16vt2JjEufWDQ0NWCyWOdaWlbq+cJ/z+XzY7Xbg+tzbFIrFgjpDLgOiJ63VasXpdOJ2uwmHw3I3Ozs7y+nTp5mcnCSXy8nevLlcDrPZzP79+3G5XDz00EOsXLmSn//855w6dQqv18vatWuZmpoiEomwdu1aWlpaypJEI0KPMzMzTE5Ozslq1ul09Pf3/9oWg+WikruwxYpwtcpkMkSjURwOB3fccQc+n68qzmcKheLGoAS5DIiQnvAmNhgM1NbW8oEPfAC4LHKxWIzm5mYeeOABaSup1+sZHBzEbrdz7733cvjwYerr6/nEJz7BxYsXKRQKRKNRJicn6ezsJBAIXHfLuatBiLJW8MWZt9VqrUq4VrsAqNZuqNq7MHH0kUwmee6552hra2Pbtm0VNZARkLhDSwAAIABJREFURy6L4XkIlvpCTfH+Ry2ny4AIp4qJU5QHia40osWcyWTCZrPhcDhk2C8Wi+H1ejl8+DCXLl1ibGyMgwcPsmzZMiwWCxMTExw6dIi1a9fidrtl6dON9kAuFovyjC4QCMgFg+hstHbt2oqVHMHbAqBNYKumAGiT8SqNKP965ZVXSCaTfOQjH0Gn08lFW6XGAHPrw6u5QBJnypVKKlMoyoES5Aogkre0vV2FaIuzMG2j+kwmw4EDB2hsbGRwcJDz58/j9XoxGAy88MILHDhwgE2bNpXVhF9Msl6vl46ODux2O7lcjmw2i91uZ+XKlVit1orsSsREL2qixc6sklm94vqih7BYHIi/V1KMstksvb29/Pd//zd9fX088cQT/Nu//RsTExMVuR+iPj2fz5PNZuX9WAzPQ5QCVnu3rlBcD0qQy4RWRGKxGKdPn6avr49sNgssHF4zGo2sWrWKRCKB1+tlxYoVDA0NyZZ0ra2tnDt3jkwmQ1NTk3z9cjShEAsGl8vFLbfcgsPhYHBwkHg8zpYtW1i3bl1Fm7gXCgXi8TihUAiTyUQ0GiUWi1Vs4hWTfy6XY2pqinA4TKFQYHp6es4ioZzXF7/Gxsb43//9X86cOcNrr73Gz372M/r6+nC5XBUVonQ6zdmzZ0kkEuj1esLhsEz0K/c4xPPIZrPEYjHi8TgGg4GxsbGKPA+FohyoM+QyICYLcda6b98+Vq1axZ49e4DL4jK/zZ32TG7lypUUi0V+8pOfcOnSJc6cOUNzczOjo6N0d3dz/PhxnnjiCXbv3k17eztOp1O2ErxRiF07wI4dOzAajQwNDbFs2TJ27drFsmXLpKlJuRH9gy9cuMCGDRtobm6mpqaG8fHxOefo5UQYvUxOTnLu3Dl2795NPp/HYDAwODhIW1tbWVtbitp2YSyzevVq2traZOlZXV2dPFqoBMVikZmZGVKpFJ/73OcolUqEQiGmp6dxOBwy67pcnw/xPEKhEBMTEzz00ENkMhkaGhoYGhqSz6MSrmEKxY1CfVrLiNFoZOPGjVgsFjZv3kxdXZ0snwHmTJ5iR5pIJIhGoySTSdatW8eyZcs4c+YMFosFm83Ghz/8YW699Vb27dvHiy++yG/+5m/S2dlZlt2AmExdLhd33HGHFCCTyVTxbF6bzcbmzZvZuHEjgAz3V7J3rsFgoL6+nnvuuYd77rlHJuOJfr7lFENtdnlHR8ecCEmxWCxbLsGVxmI0GmlubqahoWGOZ3ul+gqL+1FXV8fdd9/NnXfeKc1CxC+V5KV4v6EEuYyYTCbuvfde2fxdTBJGo5HOzk4aGxvl14pJLZFIEI/H6enpoba2lnA4TEtLC01NTTQ1NeF0Ounu7mbz5s1kMhnq6+vLXpMrktJMJpN0GYPKZbWK92e1WuXOSwhApZPKxDjEv4lf5Y4WaJPIDAaDvBcGg4FCoSCvX0kREsInngcgx1ju5yIiUGJhJp6N9jmpEjDF+w0lyGVAiK6YOOdPkna7XXpTC8TE1tbWRktLi5xc/X6/9AfWlrUID2cx8ZRzItaGr7Xh4UoKcjWuq+VqQp/lHJdWXObvPsXYKi3GgqX4PBSKcqAEuYxcacciOhUt9PULnYcu9G+VXv1Xe3K72a7/XkK6N2osi2EM79frKxTlQMV0FBVhvoGEyoBVKBSKuagd8hJAa94AVNw8YX6NqsiQFf1rKz0WcT8KhYKsYa0k4l6IsYj7YzabK1ZHLK6pNRLR1slXEq3JiLgvlUT7eVDnzopqogR5iSDKZoQYVuP6YlcszryFKFQScQ8A2dS+0mMQZhYiKUkIoHB1q9QYAJkpvpAVZqUQ71vbR7ySaB3gVORGUU2UIC8BxISfyWR47bXXGBwcrOj1hRj39fVRKBSYmJjg1VdflZ2bKkmhUKC/v59MJsPZs2fZu3evTJCrFGIhEo1GyWQyHDx4kFQqVZF6ai35fJ7R0VHi8TgnT57kmWeeqUq50ODgILOzs5w6dYoXX3xRZrFXClFTnUgk1Nm0oqooQV4iuN1u1qxZQ29vL+fPn6/otUWJSjqdZseOHRQKBY4cOVKVyb9YLOLxeLj99tspFAr84he/qKjjGLwdIu3s7MRgMDAxMSF7GVcyc10sDLZs2UIymeTVV1+V/1dJstksmzZtolgs8tprr1U8bCx2yB0dHfh8PiXKiqqhBHkJoNfrCQQC/Mmf/An5fL7iOzGxQxbhUe1ZZblLthYay3xP8WpMwIthHCI8KxZM1boX2jPjaoxB64PtdrvVObKiaihBXgIIR6tKmIgshNZKVPwSk7Ca/BTVRnturDW+USgqjRLkJYAQRGEzWa2dmDYkq6wNFYsJbZKdQlEtlCAvAYTFoUKhWBglxIrFgPoUKhQKhUKxCFCCrFC8j1ksrmeLZRwKxfsZFbJWvCtad6v5VLLbkiCXy83p9FMtZymoTlawED+tkYe4D9UIvYqezDC3EUml+HWGJuqoRvF+Qgmy4l0RE978pvPVmPy1O7Fq7cgKhcIcIay0/SfMbf0Ic9sRVpr5C4NqoL0f2hadSpAV7yeUICvelWKxSCKRIBwOYzabqa2txWw2V9TIQowjk8kwNjaG2+3G6/VW7Nrw9qQfiUSYnp7GZDJRV1eH2+0GKpe9XiqVyOVyTE5OMjU1xf9v70xj47quO/5/s6+cGa5DivsmLiItiaZkpZYdRXZipYoMO0FiI4mLuoALA24+FP1QoP1SoB8KdEGLpkCBpKhhO3GcpkVqW3EMKbVlyrYsW5EoSyTFfd+3WTjbezOvH4R78+ZpVpKzKD4/wBBNznv3vmXu/55zzz2ntLQUZWVlCSuI5aMvsixje3sb6+vraGhogM1my3sfRFHE2toaRFGELMtwuVyw2+157QdB7BUSZCIhSivQ4/HgF7/4BQDAYDCgtrYWx48fh16vh9VqzXlfZFmGJEkIhUL4+OOP8eqrr+Kll15CX19fzttmRCIRAMDa2hr+8z//E2NjYxBFEefOncOZM2dgNpvzFs0uSRKmpqbwk5/8BNPT03A4HHjxxRfR2tqat+1kbJtQLBaD3+/Hr3/9awwNDeEHP/hB3gU5HA5jY2MDf/u3f4utrS2YzWb8yZ/8CY4dO5b3SSNB7AUSZCIpzBV56dIlzM/P48UXX8TExARefvllOJ1OHD58OK8DXjAYhM/nw9DQEDweT14HWq1Wi52dHUxPT6OxsRGnT5/Gm2++iZ/85Cc4cOAADh8+DIvFkpe+SJKEnZ0dfOc730EsFsO//uu/4rPPPkNbW1te2mew7GvDw8P4xS9+gZKSEoRCobz2Abg7Ofjwww9x8OBBlJSUoLy8HG1tbbTXnbjvoChrIinRaBR+vx+jo6Nwu90wmUyorKxELBbDxMQEwuFwXvtjt9vR1tYGh8PB10zzBasG1NzcjK997WtobGzEE088AafTyScH+eqPXq9HR0cHamtr4XA40NHRgfLy8ryWLWTLBxMTE7hz5w5OnTpVkFKWALC8vIyBgQFoNBo4nU4cOnQIVquVor6J+w6ykImksIIQy8vLMJlM0Ol0MBqN0Gq18Pv9ee+LIAgwGAwQBCHvwTqCIMBoNEKn00EQBIiiCIPBgPLycpSWluZl2486kCwSiWBkZAQejwd1dXV5EyDlWvqNGzdw8OBBjIyMxNVYjsVieYu4DgaDMJvN+OSTT/B///d/kGUZp0+fJuuYuO8gQSYSIghCXLSqcmBl9XzZ3/JZoUj9c77aZtev0Wh4MYKlpSU8/PDDaG9vz7l7lIkgW7eNRCIYGxvDxMQEbt26hZaWFjQ3N+fleciyjEAggKGhITgcDjQ0NGB4eBiiKPJ6xqyf+RDkxsZG/Omf/ikCgQAGBgbw5ptvoq2tDV1dXbSGTNxXkCATCWFbRtg6srI4BCMfe4DVlqfaJZovAVL2IRKJYGVlBVNTU/j2t78Nu90OQRAgSRLPF54LmMgx67OtrQ01NTXQ6/VYWFhAIBDIW5Dd2toaLly4AJ/PhwsXLmB5eRnT09P45JNPUF9fD7PZnLctUGazGTU1NYhEIjh16hQGBwcxPDyM7u7uvLRPEPsFCTKREGb9ms1mVFVVcTHe2dlBOBxGSUnJvq8Xql2ubCKws7ODUCgUJzbsb7l0XbPrk2UZkUgEXq8XRqMRa2tr+PDDD/GHf/iHsNvtCIVCMJlM+y5AyvvBrtfv9yMcDsNut8NisUCWZTQ2NiIYDCISieTFbc36otPp4PV6+QTF4/HwoK587olmHhyz2Qyj0YiamhrU1dUhGo3mvdQoQewFEmQiIWyd1ul04g/+4A/wwQcfYG1tDQsLC6iursahQ4dyMuAyQZEkCcFgEMvLy9ja2kJVVRVMJhMXZ4/HA1EUc2alswjiaDQKr9eLxcVF7OzsQBRFXLx4EUajEQAQCoVw4MABPPLII/seZR2NRvnPTPQ2NjYQiUTg9/vhcDhQVlaGubk51NfXw2az5cU9q9Fo0NTUhL/6q79CJBJBOBzG+fPn8c477+D06dOwWq15TRBy48YNTE5OoqmpCWtrazh69ChaWloKksWNIPYCCTKRFGYV9/T0YGVlBZcvX4YgCHjyySdRV1cHvV6/7wMeE6GdnR1MTEzA4/GgpaUFFRUV3GI9efIkjEZjziKbmYtakiSsr69jenoaFosFNTU1GB4ehslkgiAIWFhYQDQaRW1tbVz6yP0kGo0iEolgdnYWKysrcLvdKCkpwbVr1zA9PY3e3l44HA709vbye5JrWH1tg8EAi8UCv9+PgwcPIhgMoqSkJO8Bd16vFx9++CFmZmbQ2dmJvr4+OJ1OEmPivoMEmUhLSUkJzpw5g3A4zKONmSjtJ0wIl5aWMDU1BYfDgb6+PpjNZu6W7O7uxoEDB3JmhbE+iKKIyclJLC0tobGxkbvtXS4XHnroIZ5Pm0V+7/f9YBOCnZ0djIyMQKPRoLe3FzabDZIk4Zvf/Cai0Si0Wi2PgC/ENh92zYcPH0ZHR0fek4IAQH9/P9rb26HX62Eymfj6NZVUJO43SJCJtBgMBuh0OlitVr42uF/WKbOI2VrxzMwMvF4v6urq4Ha7YTAY4gZXWZZRWVkZ14+9woQsGo1CFEVsb29jZmYGgiDggQcegNVq5danOoc0uw/7dT+Ypc1c1NPT0ygvL0dTUxMXGr1eD4PBwAPuWIR3oVy0bMLEtsTlG4vFwrOkMesdyF8EPkHsFyTIRFrYenIuBlu2Vru1tYW5uTkEg0G0t7fD5XLxgByl2O13sBALUALurgevrKxgdnaWJyFhwVr5EBrWF5/Ph+XlZaytraG+vh7V1dV8DzT7HJsciKIIURTz5q5OBNt7bDabC9IHNklhEyq2vk8Q9xskyETBiMViCIVCmJ+fx/b2NpxOJ9rb22EwGKDVauP2Qed6j+/GxgZmZ2cBAK2trXC5XDCZTDlrM1EfotEoFhcXsby8DJvNhkOHDsFmsyV1v8qyjLm5OcRiMTQ1NRWs+tbW1ha2t7fR3t5eEEFmbU5PTwMAurq68t4HgtgPSJCJnJOoZGI0GkUgEMDg4CAEQUBbWxucTifPxJXLxB/KcpKxWAxbW1sYHBxEZWUl6urquAjmyipW3gtm5UqShIWFBczOzqK5uZlHlbM+JEqKEovFEAgE+M+FQpZleL3egrnMmQfH5/MVpBQmQewX9PYSeUEpgCx6eWxsDC6XC01NTSgpKUk6oO/3IM+SazDrfHFxEU1NTaiuro5LaJErcVHW7GX7m8fGxhAMBnlear1en1H2r2LIRFXonNHs+lmQG0Hcr5AgEzlHuY3I7/fzteKWlha43W7uls5HP4C7e3o3NzextLQUF7jFtnEpA7Zy2Refz4fFxUVsbm7C5XKhp6eHB7Hls1jFflBIUVZ6GnKZKY0gcg0JMpETlBYxWx/d3NzE+Pg4TCYTmpub4XQ6odfrc7p9CQBPa8kG7bm5OSwvL6O8vBz19fWwWCw5d7cqXcrRaBShUAgjIyOIRCKoqalBZWVlXJTy/STGxQCb8BHE/QwJMpETmBizxBZjY2NYX19Hc3Mzqqur+VpxLoWQ5d9m1Yc8Hg/Gx8cB3A3ccjgcfJ021wLIJgXRaBRLS0uYnp5GWVkZWlpaeIYt2ju7N/JRcYsgcgkJMpET2F7aUCiE0dFRxGIxHDlyBCaTKS9izGCTgvn5eUxNTcHtdqOpqQk6nQ5arZaXU8wlzEMgiiKmp6exurqK1tZW7iFgE4Jc5+YmCKK4IUEm9g1l9HAoFMLq6ipmZ2dhtVrR1NQEm80GvV6fs0AkZVUqxs7ODlZWVrC8vIz6+nrU1tbmdM9usgIZ29vbWFpawvb2Ng4ePIjS0lK+TszW0EmM9wZZx8T9DgkysW/EYjGIogifz4eFhQWEw2HU19ejsrKSJ9jI9TptNBrl64lra2tYXl6GyWRCZ2cn7HY7t4xzWZCCnZvVDZ6fn+fFILq6umC32+OqENF68d7JZ/1lgsgVJMjEnlFGUW9vb2N0dBRmsxlNTU1wOBx5zXTF+rGysoL5+XlUVlbC7XbzwK18uckBIBAIYHx8HH6/n++zzpeb/IsI249MEPcrJMjEnmAiGI1GMT09jcnJSbS1taG6uppbgbm0WtRuymAwiMHBQYiiiM7OTpSVlfFkEflwU7Mgsu3tbdy8eRMulwu9vb2wWq08+xi5VnMDCTJxv0OCTGSFciuT0iqemZlBNBrF0aNH4XA4uGsY2H8hZG0LgoBIJAJJkniykYWFBb6dSRlBnctIbuYmj8Vi8Pv9mJ+fh8/nQ2trK6qqqrhVnI80oF90yGVN3M+QIBNZwwQxEolgeXkZy8vLsFgsaGpq4pV3cukaZhYmmxiEQiHMzc3B6/XC7Xajvr4eOp0ub2kU2f1gExOWW7qiouKeSUmuk418kdnvwiMEkW9IkDNAnWRC+W+iz7K/ZztAKoOB1L9L1EaqfuQSQRDg8XgwOjoKnU6H+vp6OByOvFUcYgE8bEIwOzsLl8uFzs7OnNVJTgSzikOhECYnJ/mEoKKiggexsf7ud7uJ/v2iQy5r4n6HBDkNsiwjHA5jY2MDPp8P9fX13AXKigIwd6SyLq5Go+EJKYxGI2KxGLxeLzY2NuLq/CoHVeZeZRmlNBoNjxyVJAlarRbRaJRH8gqCgJKSkrTXwFyqrK1MBEs5yLPcz1qtlkdR3759G06nE62trdDr9XHWKLNclUUQlNeprG2s7kuiSYny9+x6IpEIpqamMDMzg87OTlRWVt6T/5nVWlbDrgfAriKu2f0Ph8OIRCIYGhpCJBJBd3c3bDYbL1WpvBZ1X5SZu5TPJVERCfX9UObiFkWR90WSJJhMprT3UOnyV5afVN+PVEKvfLahUAgajQbhcPie5CaZ3NtM2kkF+56xe6zM2JXsHir/xo5n31tlBDxB5BMS5AyQZRnLy8v4t3/7N/zlX/4lqqursbGxgb/7u7/DuXPnUFZWhnfeeQdPP/00WlpauJCyL3wkEoFWq4XVasXFixdx+/Zt/OAHP4DVaoVOp0MwGOSF1dl66NTUFIxGIwwGA/x+PwwGA1ZWVjAwMICrV6+ivb0dzz77LA4fPpxR/0VRhMfjiduWk831s4nBxsYGhoaGUF5eDpvNxqv8pDueCQALbFKKdrb9kSQJs7OzWFlZQWNjI7RaLTweT8bnYgM3mxBka1GzZxsKhfD5559DEAQcPHgQoVCIi0GqfrDj1QKZaT+YILP1e51Oh/X1deh0uqzERO3NyaYPynNsbW3B4/FgdXV119nGMpkEJIOJcTAYhNfrxerqalbHK99vjUYDt9tN6/xEQSBBTgOzbmKxGKxWKyRJ4kXhS0tL0draitXVVTgcDlitVkQiEe66XVtbw7Vr1+B2u6HX63nQz5UrV9Df34+KigpoNBrcvHkT1dXV+PKXvwyDwYBYLIZ//Md/RE9PDw4fPozV1VVUVlZCEAQcPXoUJ06cQGdnJ2w2W0bXIIoiVldX8S//8i8QRTGjtVX1gCQIAiwWC2RZxurqKrdGlVZdKmtEo9HA7/fDZDJBkiQIgsCLOSQ7Jtnf3G43FhcXEQ6HeS7sTMWYFXWIRqMwmUwwGo27EhCLxQKbzYapqSno9Xr85je/ucfaTra0wH6/vb0NWZZ5whStVpvQck52jlgsBrPZDJPJBK/Xe09SlFT3lv1OkiT4fD6YTCZYrdaUbaqPZRgMBthsNrzzzjtJP5MKFpgHAHq9Pq5ARCbnYBMJt9uNgYGBpPcw1bOJxWIIh8Po6OjASy+9RK5voiCQIKdBkiRcv34dw8PDWF1dxSuvvIIzZ86gvLwcwO/cv5FIBH6/H5cuXcJXv/pVlJaWwuPx4Gc/+xm+9a1voba2FrIso7KyEs8//zzMZjMmJydRXl4Ol8sFm83GI5NjsRg2NzdhMBjQ29sbt3eVWbjMugyFQnzwSGYdabVabGxs4NNPP8W5c+dQXV2d9rrVAzELkmLBXInWL9XHqNfd79y5g5///OdoaGjA2bNnUVZWljCzVbpz2e12NDQ0xFm6mRKLxfCzn/0MN27cwJkzZ/DQQw/FTVAyEVTg7v2wWCxobm6Oc0crj0l1vCRJ+OEPf4itrS08/fTTOHToEL+/mRzPfmcwGKDX6xEIBOKWBpIdo74XCwsL+NGPfoTTp0+jr68vrt1MrUSz2Qy9Xg+fz5f0eaZifn4eP/7xj2EymfD9738ftbW1WR3PXM2lpaXw+/0IhUIJj0/2TrGf3333Xdy4cYNSmBIFgwQ5DYIgoLGxEeFwGNeuXcPTTz+N7e1tvP3229jY2ODW2czMDH71q19BkiQMDg7ikUcegcvlQllZGUpLSxEIBDA6OsrXnZeWlnDlyhVYLBb8wz/8A7fW2OBitVrhcrmg0WjiEkmwGro+nw/vvfceDh8+jJaWFpjN5pTXwNabH374YfT09OzqPjB261Z0OBz47//+b1RXV+MrX/kKGhsbsz7fboLllIiiiKtXr2J4eBhdXV34+te/DovFsuvz7fa+BINBvPbaawiFQujv78epU6dgMpl23Y9sYH2WJAkjIyN47bXX0N3djSeffDKrcyjjBPbyTAYHB/HGG2/AYrHg5MmT6O3tzfoc7B3f7T7vaDSKsbExzM7OZn0sQewXJMhp0Gg03B0tCALMZjMkScKpU6ewsbHBP+d2u3H27Fnu+mPrpcwF19XVhe7ubly5cgUrKyswGAx47LHHcOLECQBImEpxdnYW77777j0BTQC4RbS1tcXXiNOtHwqCkHKdUWkVKK0ttTtY6RLM5Hjg7oCt1+u5a1av18NoNMYdrz5G2W+lW1lpkSpd5smOT4QygEcphOrgKWU7ys9ke2+U/WSuYpbBTPmeJOu/+vhk7aS6XrWFyCZ7LCjPaDQmFTT1M1A/270IsvK8uwmq2o/3U7lXnCAKBQlyBni9XkxOTmJrawvj4+MoKyvD1tYWRFHkn4nFYlhcXMTk5CSeeOIJPoBqtVqeLIL9/xtvvIEHHngATz/9NCRJwtWrV1FdXY3Ozk4+KDudTjz66KNoaGiA3W6Ps2pYEozS0lIe1ZuqMLvSvczWw5N9TiluSjKxBFMdz6odMTFha/HKATCVyCivQS0G6uCoVLAoddYP9v+JriuZ+zjTtW71udRR1yw4S92PTI7fjQCqBZm1qWw/1XkzvR/Zorz/ygj4bNjL+8meR6rvBkHkAxLkNASDQbz11lv4/PPPodFocPz4caytrWF7e/ueovPhcJhvQxIEAYFAAFtbW5AkCYFAADqdDna7HSdPnsTW1hbfNvPDH/4Qp0+fRm1tLUpKSnjEpyzLuHz5MkRRRElJCbcEJEnCwMAAnnrqKZw4cSJtEg42EDHxK8Sgk8iiymbw3a8+K8WMCVEhCtsr+7EXIdoNSlFibSq3DSUjV/1jgqh8L/IJa58gCg0Jcho0Gg0OHjwIq9WKgYEBAMCBAwd4NDWDFVNYWlrig8vq6iqi0Sh6e3t5cYNgMAiPx4Pf/va3aGlpwcTEBJ577jn09PRwVzdwN2goFothdnYWdXV16Ojo4FHJoVAI58+f5+7ObCjEgMfaVf6XTwFSwtpU9yWfKNfBlfdir67fbNoHEGehF+q9AO6drBXq/cxmyYMgcgEJchqMRiOOHTsGp9PJ13+vXr2Kzc1NbG9v88+trKzgvffew0cffYT6+nr8+Z//OSKRCCwWC+x2Ow/YYluFjEYjzGYzjhw5wteujEYjIpEI389ps9kgiiIcDgeqqqr4Gp/f78+6gtJeBhrleimztrOJxFUOdmoByvd+z91EAbPPJeprthHJ7BjlvVD+nOl51M8hmz6o3f/K/3bzPHbTh/1G3fdsrkV9DwiiUJAgp0FpTWi1WjQ1NaG5uRlzc3N47bXX+OfcbjdOnTqFs2fPwmAwwGw2Y2FhAd3d3XF7K1lmL7YP1+Fw8IGVZaC6ffs2Ojs74XK5AIBvhWKDt16vRzgcznjAYedna7eZWiBK124kEkE4HMbq6ipqa2thMBju2aaTDqXgMBdpNlnD/H4/xsbGsL6+jpqaGrS0tGS9j1g5EcjGUmfPnyXjGB8fRzgcRktLCyorK7OuKKVsM1sLmdWdnp+fx+TkJGw2G9ra2lBaWppVohXWrjI6ebcRyl6vFyMjI/x+ZIN6bTdbC3lnZwfT09MIBoMA7j6D6upqvr0v3f1g7Rdi6YIglJAgp0GWZWxsbGBiYoInotDpdDCbzXHbkYxGI1wuF8rLyyEId3M9B4NBnDhxgguqKIrY2dmJGwiZlcvc3Ovr6xgbG8N3vvMd7qKenp4GAC7qkUgEgUBgT9eU7u9Ki8nr9eLWrVv4+OOP4fF48OKLL6Kqqiorq0opOGoLMZP9suFwGO+//z5efvllzM3Nobe3Fy+88AJ6e3vvidZOd22J3NbpjhGEu6lSV1ZW8Mtf/hIXLlzAzs4OTp06he9973uoqqri70OFr0K6AAATWElEQVQmApDofrB+pTuelbr80Y9+hE8++QQulwvPPfcczpw5E5dDOx3qPmTavvpaRFHE5cuX8eqrr+LP/uzPUFFRkfHx6n5k4zZmn1taWsJ//Md/YGpqCrIsw2Aw4Pnnn0dlZWXGE758LhkQRDJIkNPALNc7d+7ERTIzMVVmq2I/S5LEreMDBw7EBVNdv34d58+fR19fX8JkEZubm/jKV76CiooKHgjmcrnQ0NDAt4NIkoS6urqM8lgnup5MLBDl5zweD27duoVXX30VnZ2diEQiAH6X0zmTQSzR+rHSdZoKSZIwPDyM0dFRPPLII3jrrbdw48YNvP/++2hubs46XeRu1rJjsRgCgQCmpqbQ0NCA7373u/jpT3+KCxcuoKOjA48//jifXKW7HnWbaiFKd/zKygqGh4fx6KOPoqamBq+88gree+89PPjgg6ipqUl7LYnaVU6OsvV6jI+P4+WXX8bKygrC4XDWFm4ib0E21zA6OopwOMwz39XU1KCpqSnj6yF3NVEskCCnQaPRoLq6Gn/8x3/MCzxotVpUVVXhhRdegE6ng9PpRFtbGwwGA3fDNjU18X23zHLSarV46KGH0N7eDqfTGZfMQ6PRwGw2o7e3F7Iscyv82Wef5UlD9Ho9ZPnuHta/+Iu/yFqQdxtV7HQ6cejQIXi9Xp6ike2jzQSWmlA5QGYS1cuQJAlutxvPPPMMotEo9Ho9/v3f/x0ej4cXVcgUSZLiXNbZ3A9BENDW1ga9Xg+/34/R0VG8//77MJlM/J5kuqau3GKkDK7KRIxsNhuOHz8OjUaDxsZGvPnmm7BarTAajWm3LrHrABC31Sqb58Fg+aN/9atfYXt7G36/Py4NZqaoJyOZHM++Iz6fD/Pz8/jyl7+MpqYmmM1mmM1muFyujM+ldNnTPmSikJAgp4EVfaiuruYDOQvAqqioQDQahdVqRUNDQ9w6olIs2Zdcq9WipKQEJSUl93z5matTmZzBYDCgqqoqLlezLMs8IGw3g8duLAGWuEJ5jmzcm4kCmLLpB0uLCAChUAg2mw02m41n2MrWokvkOs8EvV4Pu90Ov9/P96R3d3ejsbExK8tSvWacyGuQCoPBwPe3z87Owm6380j+TF3w7N+9BDRtbm7i/PnzOHDgAKxWKzY2NjKaEKhRLiFkeg8E4W6Fq8XFRXz00Ue4fv06z/T15JNP8u9YJuzlHhDEfkKCnCHqTEXKvb/q4gbqKGRluUR1ysFkbaldmuq0gLudyatd1pkkVFBabtmu/yrPnUiA0u2fVsLuwczMDBoaGnDy5ElYLJakk4NE15OoD9kEuQmCgM3NTVy6dAnXr1+Hy+XC4OAgysvLMw5ySySE2a6fAsDc3Bxef/11TExM4KOPPsKxY8cyylMOxHstsn0esny3JOnNmzdRUlKCrq4u/Nd//Re/DuX7nsn1JIrAV/ZT3T77PUvk0dPTA4vFgmvXruHXv/41RkdH8dJLL+HBBx9MmjAn0btC256IQkOCnAFqsQV+Nzgrv9hK0WRZqERR5IlEWO1gFtGptjoB8DVoliBfvUatHLzY37K5jkwHPCXqY5SDd7aCrByo01kk6gGYrbFPTEzg0UcfjSt1qb6WZNejnlxkKshKN6/L5UJ/fz+GhoZw+fJlXLlyBQ8//DDMZnPWUdas/+kydSkncuwdKC8vx7lz57CwsIDbt29jfHycBxVmcj1qV3GmzyMajWJtbQ2//e1vUVZWhuHhYQQCAYiiiLm5OYRCIZhMpowtTuUkMZsJoyzLcLvd+Na3voXt7W18/vnnuHTpEt577z2MjIzg6NGjScuNJspaRhCFhgQ5AxKJnlqglb9naSK1Wi0ikQg+++wzLC4uor6+nmfw+vjjj+F0OtHf3x+XQ1eSJEQiEVy9ehVVVVVoa2uD3+/nQmYwGOJKKGab93c3FrJ6wFT+l+ngrx6c1f1I1q6Sra0tvP766zh79ix6enrg8Xj4Wrv6WpJdTyJrPxNB1mg03CIzmUyoq6vDN7/5TYyPj/NynOz86WBimChBR6pjlMfGYneLdRw7dgx+vx9vvfUWRFHMKP2jst1s3NZKQd7e3sann36KmZkZns7V6/Xi4sWLOHPmDACkzM2tPm+2FjLwu8mqxWKBxWJBaWkpGhoasLCwwCdw6pKYic6r7gNBFAoS5BwRDAbx5ptvoqOjA4FAAOvr63j11VdRUVGBEydO4OLFi3jqqad4ikwWEBSJRODxePDTn/4UTzzxBGpra/HP//zPaGxs5BG0y8vL8Pv9eOaZZ7KuEJRq0En2e0mSeLCa0lUIZOY6T+aeTeUiVfYlFoshGAzi4sWLmJycRDQaxc2bN+H1evHCCy/gwIED/BilByNdX9i5MxmEWYUtNlGqr6+HxWJBU1MTent7ecDdblzWmawfy/LdIKZgMIjJyUncvHkT/f39KC0tRUlJCVpbW1FTU5NxVDF779T9SHcco7a2Fn/zN38Dr9eLUCiEf/qnf8LCwgLOnTsHq9XKJzC73RKXrn1BEBAMBrGysoIbN26goaEBDQ0NKCkpwfHjx9HS0sKfSbJzKd+VbNbwCSJXkCDnAPZlX15e5jmrp6amuJU7OzsLk8mE2tpaxGIxrK+vw+FwwGAwIBaL4cKFC6ivr8ehQ4cgSRKWl5dx9OhRdHV1cWvkk08+yXrwSGSBJKvgo4RNEg4cOACXywWfz4dIJHKPBaQeMNVtq0UwkQsyEaIoYnx8HB9//DHGxsYwOTnJI9nVFmGqNUf17xIJUbLjNRoNNjY2cP78eUiShIceeogHUx07dow/u0yuR+kxSLTtKFn/WYT4nTt38Prrr2NoaAj9/f3w+Xw4efIkF+R0AXfqJYNUYqi8b+xvgiDAZrPBbDYjGo3C5/OhoaEBGo0GbrcbBoMhbd70ZNeZyJOS7H4A4GVPZVnGY489hsrKSvT19aGjo+OeZ57s2hK1SxCFgAQ5R0iShCNHjmB9fR2vvPIKysrK0NXVBVmWsbCwAJ/Ph9HRUczNzeHdd99Fd3c3zp07h+XlZYyNjeHJJ5/ElStXUFpaClEUYbVa4XA4IIoinE4nL2OYDYlco5kMQmx7zV//9V/zfdHs2GzWX5UDYyILOVVfysvL8eyzzyIYDPIAO7vdDpfLlVBQkw2+6jaV90NtXarPUVVVhT/6oz/C9PQ0nxC43W7Y7XYe0JXJwK6+5mxc1hqNBv39/bBardjc3ITRaOT9YMsXic6jjnVIFNSVbh1V7bVg5zKZTPje976HQCCA5uZmyPLvijWkmpSoz6t8RunaZ4Lf1dWF559/HpOTkygtLYXb7UZ5eTnMZnPC8ySbNCaaEBFEviFBzgHMgujr68Pbb7/Nrclr167h61//Oi5cuIDHH38cVqsV//u//4v29na0t7cjHA7j/PnzaG1txY0bN3Dz5k2cO3cOWq0Wt2/f5tbg0tJS1mLMSCUYyQZCnU7HBzpWr5a5rlNZ2MmsK/Y7tQCkWgN2uVy84hXzQLB83qlEVH1tSotaaaEm6yeD1Q5ub29HQ0MDZPnutjS2BSnR5CSVuzRZQFWqCQoL+HO5XOjr6+N7slktX/W9UF6Hsj1279Tr6YlczOkmOOzntrY2RKNRaLVa/lxTiZs6SFDZh0yOZ58pKSlBR0cHmpub4+psJ3JBp3q/Mo20J4hcQoKcAwRBgE6nw61bt7C+vo7nnnsOa2trcDgcGBgYgE6nQ19fH5aWljA9PY2nnnoKBw8ehF6vR2trKwBgYGAAjzzyCHp7e/HGG2+gvLwcDQ0NEEUR4XA4Y+tUSSIXbaZuOjYBYK5TpZWlvG51e0oSRWorSXU8S8iSSHwzuQ/Kz6pL/SW7H2pLmkW6s/3PDBY8lG6CoWxD3Qe1SKuPV4s1Sxcai8X4fVG3n+rZqsUvmYWYqj8M5bvB+pTq+tXHp3oe6WIMYrEY9Ho9j29gOxsSuczTTRDIZU0UGhLkHBCLxeDz+WAwGHD27Fl88MEHqKurw5EjRzA5OQmPx4PFxUWEQiG4XC60tbXxQe3QoUP49NNPUVVVhZ6eHm61VFZWorq6GtFoFJubm1ltOVIOlCxAK1vU7ths1tzU263UgrQXsr2WRJOCvWx5Yf3PJjuVLMtxRT7Y/diNKKgnRZkeo2wv0ZpyPlGvo+/GWlVPBrJ5ppkEwhFEPiBBzgEsUEuW7yaxuHLlCh599FEMDg6iubkZbrcbQ0NDiEajqKur427HQCCAgYEB/M///A9OnjyJkZERnqh/YWEBExMTiEajWFpaynqtS2lR5Ns9xwY89ZplIawStau4EPdDjdpSzjXqveDKZ1Ho4KbdeH72Sqb74gki15Ag5wi25eKXv/wlvvSlL8FsNuP69evo7e2Fw+HAj3/8Y+zs7OCxxx6LS/whyzK+8Y1voKenBxUVFTx6V5mSkFk16nXBVGQaPJUrlIOdUpQL0Q/lv+qfC0G+JwbJrOJCuW3Vbea7D+r3kiAKBQlyDtBoNKisrMT09DR0Oh0OHz6MwcFB1NbWwul0QqvVoqKiAuPj46isrOQDoslkwuOPP45QKIRgMIjFxUX4/X5uSbe2tkKSJAQCAVy5cgWxWIyvJ2u12qRpAtnaYKIo1mQDUKbrf5la6sxdzn5WuqzTDYKZJPzI9HNKNy2AlEFEu7nOTIKIZFlGJBKJK72ZyGWd6XUrSXaMOgiLPQ+1u3ivVuJunpU6oGw/389MYJOTTIuDEESuIEHOAczabWtrwzPPPIMLFy5gaGgIzc3N2NnZQSAQgCzLcDqdeOedd2A0GtHR0QGn04k7d+5gdHQUi4uLOHToEB588EGYTCZotVqYTCZIksSt5rW1Nej1ethstpSDkFJ8lIE72QphomMyGcDYYM+yJrGAm0wTR6jbyeRak31GGfyUqBBCun3Mqcj0XErxU65fqtcyd+PVSHVMoqh3ID59534IUibvV6KAObUw78f7mQnq95MgCgUJco4IBAJYWFjA7Owsmpub0djYiNu3b+PSpUsoLS3FE088gccffxyXL1/G22+/DYPBgMOHDyMWi6GiogLHjx+HJEkYHx+HXq/H9PQ0z2W9tLQEWZZx/vx5fOlLX8LRo0fjSjkmQpZl+P1+fPDBB7hz507c7xOxnxYyG/Dm5uYgSRJWVlbwm9/8Bi6Xa18FORPrLBqNYn5+HuFwGENDQ9Dr9ffUuU50/F4tZHVfRFHE+vo6gsEgPvvsM3i93nuSi+ynICe6N2xSt7Ozg9u3b+Ptt98uiIU8Pz+PYDAIAPjggw8wNjaW1fFqdtN/QRAwNjbGs74RRCEgQc4x7e3tqK6uRjAYRGlpKZxOJxoaGuB0OiFJElpbW7G9vY3y8nJYLBb09/cDuLsGvbOzg/Lycl532Ww2Q5Zl1NfXo7u7GzqdDmVlZXzbRzIEQYDVakVnZyeWlpawvr6er8uPIxgMoq+vD6IoYmZmZlfBaXslFovB5XLBbrcDAO7cubPrPd17IRqNor6+HrIsIxgMYmRkJO+1eJnburu7GwBw69atvLbPCAaDOHLkCABgcXERm5ubeW2fWec2mw0tLS15bZsglJAg5wBBEGC327nFy9Zvq6ur4xJJmEwmWK1WuN1u7uZmQsEyIJWWlnKriQ3YSiuGJcdIJWwajQb19fX4+7//e8hy/ouwM2uMrV0q17MLURBeuWaczfax/UQZ1FYM/VAuJeQbZUCbRqMpyPvJ1vTZ94kgCgEJco5gX24WcCXLMs9wpRRQ9SCci8FAEATo9Xou9oWMJFWvY9KaHQEUfi8wa1un09E7SRQMEuQcwDJ1MdFRWrZKSyhfX3w2CSiUBaQm06CdXLdfDH2gbTbFAwV2EYWGBDkHFMr9mIx8TwAypRj6U+g+FLp94ncUy4SV+OJCbyBBEARBFAEkyARBEARRBJAgEwRBEEQR8HsnyBQkQxAEQdyP/N4JMkEQBEHcj/zeRFlHo1GEQiGMj4/DaDRS9CpBEMQXlFgsxmvO309e098bQTaZTPD7/Xj99ddp+wJBEMQXGI1Gg2AwWHRbUNPxeyHIgiDggQceQG1tLYxGI8+IRRAEQXyxkGUZoijy0rQsQ+H9gCDfT/Z8CiKRCC/ddr/NigiCIIj9QV3elNUPuB/4vRFkgiAIgrifocVWgiAIgigCSJAJgiAIogggQSYIgiCIIoAEmSAIgiCKABJkgiAIgigCSJAJgiAIogggQSYIgiCIIoAEmSAIgiCKABJkgiAIgigCSJAJgiAIogggQSYIgiCIIoAEmSAIgiCKABJkgiAIgigCSJAJgiAIogggQSYIgiCIIoAEmSAIgiCKABJkgiAIgigCSJAJgiAIogggQSYIgiCIIoAEmSAIgiCKABJkgiAIgigCSJAJgiAIogggQSYIgiCIIoAEmSAIgiCKABJkgiAIgigCSJAJgiAIogggQSYIgiCIIoAEmSAIgiCKABJkgiAIgigCSJAJgiAIogggQSYIgiCIIoAEmSAIgiCKABJkgiAIgigCSJAJgiAIogggQSYIgiCIIoAEmSAIgiCKABJkgiAIgigCSJAJgiAIogggQSYIgiCIIoAEmSAIgiCKABJkgiAIgigCSJAJgiAIogggQSYIgiCIIoAEmSAIgiCKgP8HaUlFTM/wFugAAAAASUVORK5CYII=;" vertex="1" parent="1">
          <mxGeometry x="110" y="140" width="484" height="253" as="geometry" />
        </mxCell>
        <mxCell id="GrlQyEfPICOUheAgGjLL-2" value="" style="rounded=0;whiteSpace=wrap;html=1;" vertex="1" parent="1">
          <mxGeometry x="60" y="440" width="500" height="180" as="geometry" />
        </mxCell>
        <mxCell id="GrlQyEfPICOUheAgGjLL-3" value="5" style="rounded=0;whiteSpace=wrap;html=1;" vertex="1" parent="1">
          <mxGeometry x="170" y="470" width="30" height="20" as="geometry" />
        </mxCell>
        <mxCell id="GrlQyEfPICOUheAgGjLL-4" value="4" style="rounded=0;whiteSpace=wrap;html=1;" vertex="1" parent="1">
          <mxGeometry x="200" y="470" width="30" height="20" as="geometry" />
        </mxCell>
        <mxCell id="GrlQyEfPICOUheAgGjLL-5" value="3" style="rounded=0;whiteSpace=wrap;html=1;" vertex="1" parent="1">
          <mxGeometry x="230" y="470" width="30" height="20" as="geometry" />
        </mxCell>
        <mxCell id="GrlQyEfPICOUheAgGjLL-6" value="2" style="rounded=0;whiteSpace=wrap;html=1;" vertex="1" parent="1">
          <mxGeometry x="260" y="470" width="30" height="20" as="geometry" />
        </mxCell>
        <mxCell id="GrlQyEfPICOUheAgGjLL-7" value="3" style="rounded=0;whiteSpace=wrap;html=1;" vertex="1" parent="1">
          <mxGeometry x="290" y="470" width="30" height="20" as="geometry" />
        </mxCell>
        <mxCell id="GrlQyEfPICOUheAgGjLL-8" value="1" style="rounded=0;whiteSpace=wrap;html=1;" vertex="1" parent="1">
          <mxGeometry x="320" y="470" width="30" height="20" as="geometry" />
        </mxCell>
        <mxCell id="GrlQyEfPICOUheAgGjLL-12" value="原始数组" style="text;html=1;strokeColor=none;fillColor=none;align=center;verticalAlign=middle;whiteSpace=wrap;rounded=0;" vertex="1" parent="1">
          <mxGeometry x="80" y="465" width="60" height="30" as="geometry" />
        </mxCell>
        <mxCell id="GrlQyEfPICOUheAgGjLL-15" value="创建临时数组，长度为max+1" style="text;html=1;strokeColor=none;fillColor=none;align=center;verticalAlign=middle;whiteSpace=wrap;rounded=0;fontSize=12;" vertex="1" parent="1">
          <mxGeometry x="360" y="520" width="180" height="30" as="geometry" />
        </mxCell>
        <mxCell id="GrlQyEfPICOUheAgGjLL-17" value="max=5" style="text;html=1;strokeColor=none;fillColor=none;align=center;verticalAlign=middle;whiteSpace=wrap;rounded=0;fontSize=12;" vertex="1" parent="1">
          <mxGeometry x="400" y="465" width="60" height="30" as="geometry" />
        </mxCell>
        <mxCell id="GrlQyEfPICOUheAgGjLL-49" style="edgeStyle=orthogonalEdgeStyle;orthogonalLoop=1;jettySize=auto;html=1;entryX=0.5;entryY=0;entryDx=0;entryDy=0;fontSize=12;endArrow=classicThin;endFill=1;strokeColor=#000000;rounded=0;" edge="1" parent="1" source="GrlQyEfPICOUheAgGjLL-18" target="GrlQyEfPICOUheAgGjLL-34">
          <mxGeometry relative="1" as="geometry" />
        </mxCell>
        <mxCell id="GrlQyEfPICOUheAgGjLL-18" value="1" style="rounded=0;whiteSpace=wrap;html=1;" vertex="1" parent="1">
          <mxGeometry x="200" y="525" width="30" height="20" as="geometry" />
        </mxCell>
        <mxCell id="GrlQyEfPICOUheAgGjLL-50" style="edgeStyle=orthogonalEdgeStyle;orthogonalLoop=1;jettySize=auto;html=1;entryX=0.593;entryY=0.017;entryDx=0;entryDy=0;entryPerimeter=0;fontSize=12;endArrow=classicThin;endFill=1;strokeColor=#000000;rounded=0;" edge="1" parent="1" source="GrlQyEfPICOUheAgGjLL-19" target="GrlQyEfPICOUheAgGjLL-35">
          <mxGeometry relative="1" as="geometry" />
        </mxCell>
        <mxCell id="GrlQyEfPICOUheAgGjLL-19" value="1" style="rounded=0;whiteSpace=wrap;html=1;" vertex="1" parent="1">
          <mxGeometry x="230" y="525" width="30" height="20" as="geometry" />
        </mxCell>
        <mxCell id="GrlQyEfPICOUheAgGjLL-47" style="edgeStyle=orthogonalEdgeStyle;orthogonalLoop=1;jettySize=auto;html=1;entryX=0.5;entryY=0;entryDx=0;entryDy=0;fontSize=12;endArrow=classicThin;endFill=1;strokeColor=#000000;rounded=0;" edge="1" parent="1" source="GrlQyEfPICOUheAgGjLL-20" target="GrlQyEfPICOUheAgGjLL-37">
          <mxGeometry relative="1" as="geometry" />
        </mxCell>
        <mxCell id="GrlQyEfPICOUheAgGjLL-48" style="edgeStyle=orthogonalEdgeStyle;orthogonalLoop=1;jettySize=auto;html=1;entryX=0.5;entryY=0;entryDx=0;entryDy=0;fontSize=12;endArrow=classicThin;endFill=1;strokeColor=#000000;rounded=0;" edge="1" parent="1" source="GrlQyEfPICOUheAgGjLL-20" target="GrlQyEfPICOUheAgGjLL-36">
          <mxGeometry relative="1" as="geometry" />
        </mxCell>
        <mxCell id="GrlQyEfPICOUheAgGjLL-20" value="2" style="rounded=0;whiteSpace=wrap;html=1;" vertex="1" parent="1">
          <mxGeometry x="260" y="525" width="30" height="20" as="geometry" />
        </mxCell>
        <mxCell id="GrlQyEfPICOUheAgGjLL-45" style="edgeStyle=orthogonalEdgeStyle;orthogonalLoop=1;jettySize=auto;html=1;entryX=0.5;entryY=0;entryDx=0;entryDy=0;fontSize=12;strokeColor=#000000;endArrow=classicThin;endFill=1;rounded=0;" edge="1" parent="1" source="GrlQyEfPICOUheAgGjLL-21" target="GrlQyEfPICOUheAgGjLL-38">
          <mxGeometry relative="1" as="geometry" />
        </mxCell>
        <mxCell id="GrlQyEfPICOUheAgGjLL-21" value="1" style="rounded=0;whiteSpace=wrap;html=1;" vertex="1" parent="1">
          <mxGeometry x="290" y="525" width="30" height="20" as="geometry" />
        </mxCell>
        <mxCell id="GrlQyEfPICOUheAgGjLL-46" style="edgeStyle=orthogonalEdgeStyle;orthogonalLoop=1;jettySize=auto;html=1;entryX=0.5;entryY=0;entryDx=0;entryDy=0;fontSize=12;strokeColor=#000000;endArrow=classicThin;endFill=1;rounded=0;" edge="1" parent="1" source="GrlQyEfPICOUheAgGjLL-22" target="GrlQyEfPICOUheAgGjLL-39">
          <mxGeometry relative="1" as="geometry" />
        </mxCell>
        <mxCell id="GrlQyEfPICOUheAgGjLL-22" value="1" style="rounded=0;whiteSpace=wrap;html=1;" vertex="1" parent="1">
          <mxGeometry x="320" y="525" width="30" height="20" as="geometry" />
        </mxCell>
        <mxCell id="GrlQyEfPICOUheAgGjLL-24" value="" style="rounded=0;whiteSpace=wrap;html=1;" vertex="1" parent="1">
          <mxGeometry x="170" y="525" width="30" height="20" as="geometry" />
        </mxCell>
        <mxCell id="GrlQyEfPICOUheAgGjLL-27" value="" style="endArrow=none;html=1;rounded=0;fontSize=12;entryX=0.5;entryY=0;entryDx=0;entryDy=0;exitX=0.5;exitY=1;exitDx=0;exitDy=0;strokeColor=#E6D0DE;" edge="1" parent="1" source="GrlQyEfPICOUheAgGjLL-3" target="GrlQyEfPICOUheAgGjLL-22">
          <mxGeometry width="50" height="50" relative="1" as="geometry">
            <mxPoint x="190" y="540" as="sourcePoint" />
            <mxPoint x="240" y="490" as="targetPoint" />
          </mxGeometry>
        </mxCell>
        <mxCell id="GrlQyEfPICOUheAgGjLL-28" value="" style="endArrow=none;html=1;rounded=0;fontSize=12;entryX=0.5;entryY=0;entryDx=0;entryDy=0;exitX=0.5;exitY=1;exitDx=0;exitDy=0;strokeColor=#E6D0DE;" edge="1" parent="1" source="GrlQyEfPICOUheAgGjLL-4" target="GrlQyEfPICOUheAgGjLL-21">
          <mxGeometry width="50" height="50" relative="1" as="geometry">
            <mxPoint x="170" y="510" as="sourcePoint" />
            <mxPoint x="270" y="490" as="targetPoint" />
          </mxGeometry>
        </mxCell>
        <mxCell id="GrlQyEfPICOUheAgGjLL-29" value="" style="endArrow=none;html=1;rounded=0;fontSize=12;entryX=0.386;entryY=0.043;entryDx=0;entryDy=0;exitX=0.5;exitY=1;exitDx=0;exitDy=0;strokeColor=#E6D0DE;entryPerimeter=0;" edge="1" parent="1" target="GrlQyEfPICOUheAgGjLL-20">
          <mxGeometry width="50" height="50" relative="1" as="geometry">
            <mxPoint x="240" y="490" as="sourcePoint" />
            <mxPoint x="390" y="525" as="targetPoint" />
          </mxGeometry>
        </mxCell>
        <mxCell id="GrlQyEfPICOUheAgGjLL-30" value="" style="endArrow=none;html=1;rounded=0;fontSize=12;entryX=0.5;entryY=0;entryDx=0;entryDy=0;exitX=0.5;exitY=1;exitDx=0;exitDy=0;strokeColor=#E6D0DE;" edge="1" parent="1" source="GrlQyEfPICOUheAgGjLL-6" target="GrlQyEfPICOUheAgGjLL-19">
          <mxGeometry width="50" height="50" relative="1" as="geometry">
            <mxPoint x="250" y="500" as="sourcePoint" />
            <mxPoint x="281.58000000000015" y="535.86" as="targetPoint" />
          </mxGeometry>
        </mxCell>
        <mxCell id="GrlQyEfPICOUheAgGjLL-31" value="" style="endArrow=none;html=1;rounded=0;fontSize=12;exitX=0.5;exitY=1;exitDx=0;exitDy=0;strokeColor=#E6D0DE;entryX=0.5;entryY=0;entryDx=0;entryDy=0;" edge="1" parent="1" source="GrlQyEfPICOUheAgGjLL-7" target="GrlQyEfPICOUheAgGjLL-20">
          <mxGeometry width="50" height="50" relative="1" as="geometry">
            <mxPoint x="285" y="500" as="sourcePoint" />
            <mxPoint x="255" y="535" as="targetPoint" />
          </mxGeometry>
        </mxCell>
        <mxCell id="GrlQyEfPICOUheAgGjLL-32" value="" style="endArrow=none;html=1;rounded=0;fontSize=12;exitX=0.5;exitY=1;exitDx=0;exitDy=0;strokeColor=#E6D0DE;entryX=0.5;entryY=0;entryDx=0;entryDy=0;" edge="1" parent="1" source="GrlQyEfPICOUheAgGjLL-8" target="GrlQyEfPICOUheAgGjLL-18">
          <mxGeometry width="50" height="50" relative="1" as="geometry">
            <mxPoint x="315" y="500" as="sourcePoint" />
            <mxPoint x="285" y="535" as="targetPoint" />
          </mxGeometry>
        </mxCell>
        <mxCell id="GrlQyEfPICOUheAgGjLL-33" value="映射并计数" style="text;html=1;strokeColor=none;fillColor=none;align=center;verticalAlign=middle;whiteSpace=wrap;rounded=0;fontSize=12;" vertex="1" parent="1">
          <mxGeometry x="80" y="500" width="70" height="25" as="geometry" />
        </mxCell>
        <mxCell id="GrlQyEfPICOUheAgGjLL-34" value="1" style="rounded=0;whiteSpace=wrap;html=1;" vertex="1" parent="1">
          <mxGeometry x="180" y="575" width="30" height="20" as="geometry" />
        </mxCell>
        <mxCell id="GrlQyEfPICOUheAgGjLL-35" value="2" style="rounded=0;whiteSpace=wrap;html=1;" vertex="1" parent="1">
          <mxGeometry x="210" y="575" width="30" height="20" as="geometry" />
        </mxCell>
        <mxCell id="GrlQyEfPICOUheAgGjLL-36" value="3" style="rounded=0;whiteSpace=wrap;html=1;" vertex="1" parent="1">
          <mxGeometry x="240" y="575" width="30" height="20" as="geometry" />
        </mxCell>
        <mxCell id="GrlQyEfPICOUheAgGjLL-37" value="3" style="rounded=0;whiteSpace=wrap;html=1;" vertex="1" parent="1">
          <mxGeometry x="270" y="575" width="30" height="20" as="geometry" />
        </mxCell>
        <mxCell id="GrlQyEfPICOUheAgGjLL-38" value="4" style="rounded=0;whiteSpace=wrap;html=1;" vertex="1" parent="1">
          <mxGeometry x="300" y="575" width="30" height="20" as="geometry" />
        </mxCell>
        <mxCell id="GrlQyEfPICOUheAgGjLL-39" value="5" style="rounded=0;whiteSpace=wrap;html=1;" vertex="1" parent="1">
          <mxGeometry x="330" y="575" width="30" height="20" as="geometry" />
        </mxCell>
        <mxCell id="GrlQyEfPICOUheAgGjLL-51" value="取出下标" style="text;html=1;strokeColor=none;fillColor=none;align=center;verticalAlign=middle;whiteSpace=wrap;rounded=0;fontSize=12;" vertex="1" parent="1">
          <mxGeometry x="85" y="570" width="60" height="30" as="geometry" />
        </mxCell>
      </root>
    </mxGraphModel>
  </diagram>
</mxfile>
